<svg width="1759" height="4166" viewBox="0 0 1759 4166" fill="none" xmlns="http://www.w3.org/2000/svg">
<rect width="1759" height="4166" fill="#E5E5E5"/>
<g clip-path="url(#clip0_1_468)">
<rect width="1440" height="3774" transform="translate(158 392)" fill="white"/>
<path d="M313.813 1097.28L585.472 922.883" stroke="#A5ADBA" stroke-miterlimit="10" stroke-linecap="round" stroke-dasharray="1 1"/>
<path d="M232.855 862.846L541.78 802.236" stroke="#A5ADBA" stroke-miterlimit="10" stroke-linecap="round" stroke-dasharray="1 1"/>
<path d="M229 611.546L537.925 672.155" stroke="#A5ADBA" stroke-miterlimit="10" stroke-linecap="round" stroke-dasharray="1 1"/>
<path d="M302.503 373.97L574.163 548.364" stroke="#A5ADBA" stroke-miterlimit="10" stroke-linecap="round" stroke-dasharray="1 1"/>
<path d="M444.63 178.704L646.383 446.014" stroke="#A5ADBA" stroke-miterlimit="10" stroke-linecap="round" stroke-dasharray="1 1"/>
<path d="M1280.68 162.694L1079.19 429.718" stroke="#A5ADBA" stroke-miterlimit="10" stroke-linecap="round" stroke-dasharray="1 1"/>
<path d="M1428.72 352.241L1157.32 526.636" stroke="#A5ADBA" stroke-miterlimit="10" stroke-linecap="round" stroke-dasharray="1 1"/>
<path d="M1509.68 586.959L1201.01 647.282" stroke="#A5ADBA" stroke-miterlimit="10" stroke-linecap="round" stroke-dasharray="1 1"/>
<path d="M1513.79 837.972L1204.87 777.363" stroke="#A5ADBA" stroke-miterlimit="10" stroke-linecap="round" stroke-dasharray="1 1"/>
<path d="M1440.03 1075.55L1168.63 901.155" stroke="#A5ADBA" stroke-miterlimit="10" stroke-linecap="round" stroke-dasharray="1 1"/>
<path d="M1297.9 1270.81L1096.41 1003.5" stroke="#A5ADBA" stroke-miterlimit="10" stroke-linecap="round" stroke-dasharray="1 1"/>
<path d="M1104.37 1400.32L997.201 1072.4" stroke="#A5ADBA" stroke-miterlimit="10" stroke-linecap="round" stroke-dasharray="1 1"/>
<path d="M871.524 1323.99L871.524 1099.28" stroke="#A5ADBA" stroke-miterlimit="10" stroke-linecap="round" stroke-dasharray="1 1"/>
<path d="M659.491 1408.9L766.921 1080.98" stroke="#A5ADBA" stroke-miterlimit="10" stroke-linecap="round" stroke-dasharray="1 1"/>
<path d="M462.107 1286.82L663.602 1019.8" stroke="#A5ADBA" stroke-miterlimit="10" stroke-linecap="round" stroke-dasharray="1 1"/>
<path d="M313.813 1097.28L585.472 922.883" stroke="#A5ADBA" stroke-miterlimit="10" stroke-linecap="round" stroke-dasharray="1 1"/>
<path d="M232.855 862.846L541.78 802.236" stroke="#A5ADBA" stroke-miterlimit="10" stroke-linecap="round" stroke-dasharray="1 1"/>
<path d="M229 611.546L537.925 672.155" stroke="#A5ADBA" stroke-miterlimit="10" stroke-linecap="round" stroke-dasharray="1 1"/>
<path d="M302.503 373.97L574.163 548.364" stroke="#A5ADBA" stroke-miterlimit="10" stroke-linecap="round" stroke-dasharray="1 1"/>
<path d="M444.63 178.704L646.383 446.014" stroke="#A5ADBA" stroke-miterlimit="10" stroke-linecap="round" stroke-dasharray="1 1"/>
<g clip-path="url(#clip1_1_468)">
<path d="M1299.27 692.424L1417.14 570.735L1588.88 613.388L1470.33 735.039L1299.27 692.424Z" fill="#C5E9DA" stroke="#36B37E" stroke-width="2.29137" stroke-miterlimit="10" stroke-linejoin="round"/>
<path d="M1470.33 735.039L1588.88 613.389L1625.51 780.633L1515.23 899.573L1470.33 735.039Z" fill="white" stroke="#36B37E" stroke-width="2.29137" stroke-miterlimit="10" stroke-linejoin="round"/>
<path d="M1470.33 735.038L1398.12 798.489L1515.23 899.572L1470.33 735.038Z" fill="white" stroke="#36B37E" stroke-width="2.29137" stroke-miterlimit="10" stroke-linejoin="round"/>
<path d="M1398.12 798.49L1299.27 692.424L1470.33 735.039L1398.12 798.49Z" fill="white" stroke="#36B37E" stroke-width="2.29137" stroke-miterlimit="10" stroke-linejoin="round"/>
<path d="M1515.23 899.573L1343.14 853.18L1398.12 798.49L1515.23 899.573Z" fill="#C5E9DA" stroke="#36B37E" stroke-width="2.29137" stroke-miterlimit="10" stroke-linejoin="round"/>
<path d="M1299.27 692.424L1343.14 853.18L1398.12 798.49L1299.27 692.424Z" fill="white" stroke="#36B37E" stroke-width="2.29137" stroke-miterlimit="10" stroke-linejoin="round"/>
<path d="M1434.12 766.792L1455.98 747.747L1434.12 766.792Z" fill="#644DF2"/>
<path d="M1451.23 730.329L1455.98 747.748L1470.33 735.039L1451.23 730.329Z" fill="#36B37E"/>
<path d="M1451.23 730.329L1567.61 608.145L1538.11 600.861L1422.21 723.141L1451.23 730.329Z" fill="#36B37E"/>
<path d="M1400.4 717.592L1516.78 595.408L1487.28 588.124L1371.38 710.404L1400.4 717.592Z" fill="#36B37E"/>
<path d="M1400.4 717.592L1418.04 782.23L1434.12 766.792L1422.21 723.14L1400.4 717.592Z" fill="#36B37E"/>
<path d="M1371.38 710.404L1394.28 794.35L1343.89 740.23L1333.12 700.775L1371.38 710.404Z" fill="#36B37E"/>
<path d="M1333.12 700.775L1350.96 683.506L1316.31 674.697L1299.27 692.424L1333.12 700.775Z" fill="#172B4D"/>
<path d="M1387.69 693.326L1404.3 675.713L1366.52 666.179L1349.43 683.697L1387.69 693.326Z" fill="#172B4D"/>
<path d="M1366.52 666.179L1384.36 648.909L1349.71 640.1L1332.62 657.618L1366.52 666.179Z" fill="#172B4D"/>
<path d="M1393.52 803.127L1398.12 798.49L1360.71 858.081L1343.14 853.18L1393.52 803.127Z" fill="#172B4D"/>
<path d="M1600.4 665.492L1578.63 689.021L1587.45 726.301L1608.65 703.154L1600.4 665.492Z" fill="#36B37E"/>
<path d="M1585.6 718.688L1591.69 746.791L1570.5 769.938L1563.93 741.739L1492.78 817.305C1492.78 817.305 1512.25 888.659 1515.23 899.572C1518.2 910.485 1625.56 780.842 1625.56 780.842L1606.97 696.171L1585.6 718.688Z" fill="#172B4D"/>
</g>
<g opacity="0.88">
<g clip-path="url(#clip2_1_468)">
<path d="M580.707 1172.1L539.867 1236.87L459.941 1233.95L501.087 1169.13L580.707 1172.1Z" fill="#C5E9DA" stroke="#36B37E" stroke-width="1.11251" stroke-miterlimit="10" stroke-linejoin="round"/>
<path d="M501.088 1169.13L459.941 1233.95L428.213 1163.38L465.949 1100.53L501.088 1169.13Z" fill="white" stroke="#36B37E" stroke-width="1.11251" stroke-miterlimit="10" stroke-linejoin="round"/>
<path d="M501.088 1169.13L527.135 1134.36L465.949 1100.53L501.088 1169.13Z" fill="white" stroke="#36B37E" stroke-width="1.11251" stroke-miterlimit="10" stroke-linejoin="round"/>
<path d="M527.135 1134.36L580.707 1172.1L501.088 1169.13L527.135 1134.36Z" fill="white" stroke="#36B37E" stroke-width="1.11251" stroke-miterlimit="10" stroke-linejoin="round"/>
<path d="M465.949 1100.53L546.375 1105.07L527.135 1134.36L465.949 1100.53Z" fill="#C5E9DA" stroke="#36B37E" stroke-width="1.11251" stroke-miterlimit="10" stroke-linejoin="round"/>
<path d="M580.707 1172.1L546.375 1105.07L527.135 1134.36L580.707 1172.1Z" fill="white" stroke="#36B37E" stroke-width="1.11251" stroke-miterlimit="10" stroke-linejoin="round"/>
<path d="M514.155 1151.73L506.253 1162.18L514.155 1151.73Z" fill="#644DF2"/>
<path d="M509.973 1169.44L506.253 1162.18L501.088 1169.13L509.973 1169.44Z" fill="#36B37E"/>
<path d="M509.973 1169.44L469.838 1234.3L483.562 1234.78L523.478 1169.93L509.973 1169.44Z" fill="#36B37E"/>
<path d="M533.639 1170.36L493.504 1235.21L507.228 1235.69L547.144 1170.84L533.639 1170.36Z" fill="#36B37E"/>
<path d="M533.64 1170.36L519.835 1143.4L514.155 1151.73L523.478 1169.93L533.64 1170.36Z" fill="#36B37E"/>
<path d="M547.144 1170.84L529.216 1135.84L556.533 1155.1L564.959 1171.55L547.144 1170.84Z" fill="#36B37E"/>
<path d="M564.96 1171.55L558.673 1180.85L574.818 1181.53L580.707 1172.1L564.96 1171.55Z" fill="#172B4D"/>
<path d="M541.515 1179.91L535.801 1189.25L553.397 1189.95L559.331 1180.62L541.515 1179.91Z" fill="#172B4D"/>
<path d="M553.397 1189.96L547.111 1199.25L563.256 1199.93L569.189 1190.59L553.397 1189.96Z" fill="#172B4D"/>
<path d="M528.738 1131.89L527.135 1134.36L538.147 1104.53L546.375 1105.07L528.738 1131.89Z" fill="#172B4D"/>
<path d="M450.011 1211.97L457.454 1199.55L450.09 1183.88L442.865 1196.08L450.011 1211.97Z" fill="#36B37E"/>
<path d="M451.616 1187.07L446.312 1175.21L453.538 1163L459.061 1174.86L483.518 1134.83C483.518 1134.83 468.28 1105.08 465.949 1100.53C463.618 1095.97 428.168 1163.29 428.168 1163.29L444.256 1199.01L451.616 1187.07Z" fill="#172B4D"/>
</g>
</g>
<g opacity="0.32">
<g clip-path="url(#clip3_1_468)">
<path d="M700.39 486.19L718.644 509.444L707.213 538.129L688.981 514.757L700.39 486.19Z" fill="#C5E9DA" stroke="#36B37E" stroke-width="1.11251" stroke-miterlimit="10" stroke-linejoin="round"/>
<path d="M688.981 514.757L707.213 538.128L677.432 540.509L659.474 518.633L688.981 514.757Z" fill="white" stroke="#36B37E" stroke-width="1.11251" stroke-miterlimit="10" stroke-linejoin="round"/>
<path d="M688.981 514.756L679.717 500.774L659.474 518.632L688.981 514.756Z" fill="white" stroke="#36B37E" stroke-width="1.11251" stroke-miterlimit="10" stroke-linejoin="round"/>
<path d="M679.717 500.774L700.39 486.189L688.981 514.757L679.717 500.774Z" fill="white" stroke="#36B37E" stroke-width="1.11251" stroke-miterlimit="10" stroke-linejoin="round"/>
<path d="M659.474 518.633L671.56 489.977L679.717 500.774L659.474 518.633Z" fill="#C5E9DA" stroke="#36B37E" stroke-width="1.11251" stroke-miterlimit="10" stroke-linejoin="round"/>
<path d="M700.39 486.189L671.56 489.977L679.717 500.774L700.39 486.189Z" fill="white" stroke="#36B37E" stroke-width="1.11251" stroke-miterlimit="10" stroke-linejoin="round"/>
<path d="M684.346 507.747L687.123 511.976L684.346 507.747Z" fill="#644DF2"/>
<path d="M690.247 511.565L687.123 511.976L688.981 514.756L690.247 511.565Z" fill="#36B37E"/>
<path d="M690.246 511.566L708.622 534.574L710.578 529.646L692.175 506.718L690.246 511.566Z" fill="#36B37E"/>
<path d="M693.649 503.078L712.024 526.087L713.98 521.159L695.578 498.231L693.649 503.078Z" fill="#36B37E"/>
<path d="M693.649 503.078L682.057 504.601L684.346 507.746L692.175 506.718L693.649 503.078Z" fill="#36B37E"/>
<path d="M695.577 498.23L680.523 500.208L691.07 492.773L698.146 491.844L695.577 498.23Z" fill="#36B37E"/>
<path d="M698.146 491.844L700.711 495.336L703.052 489.553L700.39 486.189L698.146 491.844Z" fill="#172B4D"/>
<path d="M698.145 501.455L700.798 504.743L703.338 498.437L700.714 495.068L698.145 501.455Z" fill="#172B4D"/>
<path d="M703.339 498.437L705.903 501.928L708.245 496.146L705.62 492.777L703.339 498.437Z" fill="#172B4D"/>
<path d="M679.024 499.869L679.717 500.774L670.298 492.899L671.56 489.977L679.024 499.869Z" fill="#172B4D"/>
<path d="M697.932 538.887L694.379 534.568L687.725 535.213L691.226 539.424L697.932 538.887Z" fill="#36B37E"/>
<path d="M689.085 535.073L684.082 535.462L680.581 531.251L685.611 530.781L674.228 516.694C674.228 516.694 661.431 518.375 659.474 518.632C657.517 518.89 677.395 540.514 677.395 540.514L692.473 539.299L689.085 535.073Z" fill="#172B4D"/>
</g>
</g>
<g clip-path="url(#clip4_1_468)">
<path d="M215.292 741.725L363.988 649.453C363.988 649.453 244.731 837.868 242.731 837.056C242.731 837.056 224.187 767.239 215.292 741.725Z" fill="white" stroke="#36B37E" stroke-width="1.43899" stroke-miterlimit="10" stroke-linejoin="round"/>
<path d="M363.988 649.453L368.471 655.623C368.471 655.623 373.303 850.183 372.999 852.079C372.695 853.975 375.678 855.808 370.995 857.012C366.312 858.216 283.384 845.184 262.991 841.093C242.731 837.056 242.731 837.056 242.731 837.056L363.988 649.453Z" fill="#36B37E"/>
<path d="M271.736 730.485L308.14 828.215L370.45 794.506L367.954 692.068L271.736 730.485Z" fill="#C5E9DA"/>
<mask id="mask0_1_468" style="mask-type:alpha" maskUnits="userSpaceOnUse" x="272" y="692" width="99" height="137">
<path d="M272.216 731.19L308.62 828.92L370.93 795.211L368.434 692.773L272.216 731.19Z" fill="#C5E9DA"/>
</mask>
<g mask="url(#mask0_1_468)">
<path d="M361.527 790.561L344.871 787.211L344.487 808.8L326.573 805.871L325.431 829.327L344.017 831.752L361.694 834.118L378.463 836.426L377.779 814.404L361.494 811.671L361.527 790.561Z" fill="#36B37E"/>
<path d="M327.439 783.858L344.871 787.212L345.221 766.852L328.46 762.994L327.439 783.858Z" fill="#36B37E"/>
<path d="M309.208 780.179L307.671 802.697L326.573 805.872L327.44 783.858L309.208 780.179Z" fill="#36B37E"/>
<path d="M309.208 780.179L310.658 759.023L292.002 754.861L289.935 776.387L309.208 780.179Z" fill="#36B37E"/>
<path d="M289.935 776.388L269.809 772.405L266.796 795.878L263.588 820.979L285.378 823.928L305.992 826.711L307.671 802.698L287.727 799.41L289.935 776.388Z" fill="#36B37E"/>
<path d="M407.013 799.411L405.672 780.538L391.607 777.309L376.821 773.943L376.334 755.262L361.39 751.52L345.725 747.642L345.221 766.852L361.448 770.493L361.527 790.562L377.384 793.586L377.779 814.405L393.344 817L392.465 796.607L407.013 799.411Z" fill="#36B37E"/>
<path d="M389.982 741.546L375.867 737.676L376.334 755.261L390.824 758.974L389.982 741.546Z" fill="#36B37E"/>
<path d="M329.26 743.437L345.725 747.641L346.037 729.285L330.135 724.844L313.378 720.211L312.074 739.096L310.658 759.023L328.46 762.993L329.26 743.437Z" fill="#36B37E"/>
<path d="M294.035 734.563L275.196 729.705L272.546 750.374L292.002 754.861L294.035 734.563Z" fill="#36B37E"/>
<path d="M251.915 745.72L248.374 768.201L269.809 772.405L272.546 750.374L251.915 745.72Z" fill="#36B37E"/>
</g>
<path d="M271.736 730.485L325.509 708.996L286.751 770.755L271.736 730.485Z" fill="#172B4D"/>
<path d="M242.373 724.769L230.728 793.194" stroke="#36B37E" stroke-width="1.43899" stroke-miterlimit="10" stroke-linejoin="round"/>
<path d="M239.944 739.159L235.294 729.194L242.373 724.769L239.944 739.159Z" fill="#172B4D"/>
<path d="M335.728 667.018L350.11 670.997" stroke="#36B37E" stroke-width="1.43899" stroke-miterlimit="10" stroke-linejoin="round"/>
<path d="M282.022 760.603L317.48 850.338" stroke="white" stroke-width="1.43899" stroke-miterlimit="10" stroke-linejoin="round"/>
</g>
<g clip-path="url(#clip5_1_468)">
<path d="M1243.3 498.297L1134.43 483.855L1088.98 439.757L1095.01 328.38L1109.79 307.073L1142.78 311.685L1249.14 426.295L1243.3 498.297Z" fill="#C5E9DA" stroke="#36B37E" stroke-width="1.51665" stroke-miterlimit="10" stroke-linejoin="round"/>
<path d="M1171.28 488.749L1168.76 456.728C1168.76 456.728 1157.77 486.94 1153.19 486.35C1148.49 485.674 1171.28 488.749 1171.28 488.749Z" fill="#36B37E"/>
<path d="M1197.3 492.222L1222.25 397.479" stroke="#36B37E" stroke-width="1.51665" stroke-miterlimit="10"/>
<path d="M1215.96 421.174L1214.09 388.491" stroke="#36B37E" stroke-width="1.51665" stroke-miterlimit="10"/>
<mask id="path-98-inside-1_1_468" fill="white">
<path d="M1138.43 403.206L1151.11 393.724L1139.49 380.129L1093.81 350.457L1092.93 366.091L1138.43 403.206Z"/>
</mask>
<path d="M1138.43 403.206L1151.11 393.724L1139.49 380.129L1093.81 350.457L1092.93 366.091L1138.43 403.206Z" fill="white" stroke="#36B37E" stroke-width="3.0333" mask="url(#path-98-inside-1_1_468)"/>
<path d="M1168.32 472.13L1168.66 422.702" stroke="#36B37E" stroke-width="1.51665" stroke-miterlimit="10"/>
<path d="M1106.15 368.062L1093.27 361.343L1089.03 439.811L1134.49 483.909L1138.43 403.205L1132.72 393.885L1106.15 368.062Z" fill="#172B4D"/>
</g>
<g opacity="0.48" clip-path="url(#clip6_1_468)">
<path d="M729.805 1017.85L813.36 1068.82C813.36 1068.82 825.732 1078.57 814.099 1099.56C802.466 1120.55 788.373 1115.46 788.373 1115.46L701.596 1065.51C701.596 1065.51 691.313 1056.04 701.625 1036.62C713.555 1014.04 729.805 1017.85 729.805 1017.85Z" fill="#C5E9DA" stroke="#36B37E" stroke-width="0.736762" stroke-miterlimit="10"/>
<path d="M729.805 1017.85C729.805 1017.85 741.647 1025.11 729.013 1049.02C717.14 1071.4 701.596 1065.51 701.596 1065.51C701.596 1065.51 691.608 1055.21 701.625 1036.62C711.643 1018.04 723.666 1017.71 729.805 1017.85Z" fill="#36B37E"/>
<path d="M806.728 1064.74C806.728 1064.74 799.001 1076.5 778.66 1084.63C757.086 1093.27 744.799 1090.38 744.799 1090.38L762.23 1100.44C762.23 1100.44 771.378 1102.37 793.929 1091.85C812.339 1083.27 817.597 1074.81 817.597 1074.81L813.259 1068.79L806.728 1064.74Z" fill="#172B4D"/>
<path d="M777.106 1046.93C777.106 1046.93 769.626 1057.47 747.497 1064.64C725.369 1071.82 710.179 1070.53 710.179 1070.53L727.61 1080.6C727.61 1080.6 741.733 1082.39 761.674 1074.15C780.154 1066.46 790.705 1055.24 790.705 1055.24L780.015 1048.69L777.106 1046.93Z" fill="#36B37E"/>
<path d="M729.013 1049.02C729.013 1049.02 752.201 1050.76 765.83 1039.78L750.88 1030.7C750.88 1030.7 744.061 1033.29 734.733 1031.8C734.733 1031.8 732.276 1042.58 729.013 1049.02Z" fill="#172B4D"/>
<path d="M720.159 1039.85L717.217 1043.67L718.201 1061.14C718.201 1061.14 724.967 1056.47 729.012 1049.02L725.425 1040.39L720.159 1039.85Z" fill="white" stroke="#36B37E" stroke-width="0.736762" stroke-miterlimit="10"/>
<path d="M733.422 1023.18C733.422 1023.18 732.422 1018.93 729.77 1017.79L715.734 1038.09C715.734 1038.09 720.618 1039.77 721.833 1040.44C723.084 1041.18 725.378 1042.44 725.378 1042.44L733.985 1036.84C734.02 1036.9 736.97 1030.06 733.422 1023.18Z" fill="white" stroke="#36B37E" stroke-width="0.736762" stroke-miterlimit="10"/>
<path d="M816.436 1094.65C816.436 1094.65 803.907 1103.51 788.623 1106.31C774.419 1108.94 773.107 1106.72 773.107 1106.72L788.373 1115.46C788.373 1115.46 794.895 1117.66 803.064 1112.64C811.233 1107.62 816.436 1094.65 816.436 1094.65Z" fill="#36B37E"/>
<path d="M721.868 1040.51C721.868 1040.51 720.774 1033.96 719.462 1031.73C718.15 1029.51 717.858 1028.83 717.858 1028.83L714.754 1034.34L715.769 1038.15L721.868 1040.51Z" fill="white" stroke="#36B37E" stroke-width="0.736762" stroke-miterlimit="10"/>
<path d="M717.153 1043.7L712.825 1042.73L697.312 1055.17C697.312 1055.17 696.914 1056.74 699.142 1061.99L700.519 1064.17L718.892 1046.7C718.827 1046.73 719.348 1044.17 717.153 1043.7Z" fill="white" stroke="#36B37E" stroke-width="0.736762" stroke-miterlimit="10"/>
<path d="M717.152 1043.7C717.152 1043.7 711.405 1053.86 711.627 1053.66C711.849 1053.45 720.463 1048.02 720.463 1048.02C720.463 1048.02 720.151 1043.64 717.152 1043.7Z" fill="white" stroke="#36B37E" stroke-width="0.736762" stroke-miterlimit="10"/>
</g>
<g clip-path="url(#clip7_1_468)">
<path d="M1104.35 1207.52L1197.29 1048.53C1197.29 1048.53 1215.19 1024.9 1255.09 1046.05C1295 1067.19 1285.92 1093.89 1285.92 1093.89L1195.01 1258.91C1195.01 1258.91 1177.56 1278.59 1140.66 1259.87C1097.75 1238.23 1104.35 1207.52 1104.35 1207.52Z" fill="#C5E9DA" stroke="#36B37E" stroke-width="1.38636" stroke-miterlimit="10"/>
<path d="M1104.35 1207.52C1104.35 1207.52 1117.6 1184.98 1163.01 1207.91C1205.55 1229.46 1195.02 1258.91 1195.02 1258.91C1195.02 1258.91 1175.98 1278.06 1140.66 1259.87C1105.35 1241.68 1104.3 1219.07 1104.35 1207.52Z" fill="#36B37E"/>
<path d="M1189.85 1061.15C1189.85 1061.15 1212.25 1075.27 1228.26 1113.25C1245.27 1153.53 1240.27 1176.75 1240.27 1176.75L1258.59 1143.6C1258.59 1143.6 1261.9 1126.32 1241.3 1084.27C1224.52 1049.93 1208.42 1040.34 1208.42 1040.34L1197.24 1048.71L1189.85 1061.15Z" fill="#172B4D"/>
<path d="M1157.4 1117.5C1157.4 1117.5 1177.47 1131.2 1191.76 1172.58C1206.04 1213.96 1204.16 1242.58 1204.16 1242.58L1222.48 1209.43C1222.48 1209.43 1225.35 1182.8 1209.14 1145.58C1194.03 1111.08 1172.55 1091.62 1172.55 1091.62L1160.61 1111.97L1157.4 1117.5Z" fill="#36B37E"/>
<path d="M1163.01 1207.91C1163.01 1207.91 1165.48 1164.22 1144.34 1138.97L1127.79 1167.42C1127.79 1167.42 1132.9 1180.15 1130.41 1197.76C1130.41 1197.76 1150.79 1202 1163.01 1207.91Z" fill="#172B4D"/>
<path d="M1146.08 1224.89L1153.36 1230.29L1186.19 1227.82C1186.19 1227.82 1177.18 1215.26 1163.01 1207.91L1146.91 1214.96L1146.08 1224.89Z" fill="white" stroke="#36B37E" stroke-width="1.38636" stroke-miterlimit="10"/>
<path d="M1114.24 1200.53C1114.24 1200.53 1106.29 1202.56 1104.23 1207.59L1142.92 1233.28C1142.92 1233.28 1145.9 1224.03 1147.13 1221.72C1148.48 1219.34 1150.76 1214.98 1150.76 1214.98L1139.93 1198.99C1140.05 1198.92 1127.06 1193.61 1114.24 1200.53Z" fill="white" stroke="#36B37E" stroke-width="1.38636" stroke-miterlimit="10"/>
<path d="M1245.77 1041.83C1245.77 1041.83 1262.88 1065.08 1268.7 1093.74C1274.15 1120.37 1270.02 1122.92 1270.02 1122.92L1285.92 1093.89C1285.92 1093.89 1289.83 1081.54 1280.1 1066.35C1270.37 1051.16 1245.77 1041.83 1245.77 1041.83Z" fill="#36B37E"/>
<path d="M1147.25 1221.65C1147.25 1221.65 1134.97 1223.94 1130.83 1226.49C1126.7 1229.03 1125.43 1229.61 1125.43 1229.61L1135.89 1235.25L1143.04 1233.21L1147.25 1221.65Z" fill="white" stroke="#36B37E" stroke-width="1.38636" stroke-miterlimit="10"/>
<path d="M1153.43 1230.41L1151.75 1238.59L1175.71 1267.33C1175.71 1267.33 1178.67 1268.03 1188.47 1263.65L1192.53 1260.98L1159 1227.03C1159.07 1227.15 1154.24 1226.26 1153.43 1230.41Z" fill="white" stroke="#36B37E" stroke-width="1.38636" stroke-miterlimit="10"/>
<path d="M1153.43 1230.41C1153.43 1230.41 1172.75 1240.87 1172.36 1240.46C1171.96 1240.04 1161.43 1224.03 1161.43 1224.03C1161.43 1224.03 1153.22 1224.77 1153.43 1230.41Z" fill="white" stroke="#36B37E" stroke-width="1.38636" stroke-miterlimit="10"/>
</g>
<text fill="#172B4D" xml:space="preserve" style="white-space: pre" font-family="Inter" font-size="48" font-weight="800" letter-spacing="0.37px"><tspan x="647.704" y="671.455">Hey there. I&#x2019;m Alex.&#10;</tspan></text>
<text fill="#36B37E" xml:space="preserve" style="white-space: pre" font-family="Inter" font-size="48" font-weight="800" letter-spacing="0.37px"><tspan x="578.833" y="731.455"> I&#x2019;m a software developer</tspan></text>
<text fill="#172B4D" xml:space="preserve" style="white-space: pre" font-family="Inter" font-size="20" letter-spacing="0em"><tspan x="471.652" y="785.273"> I can help you build a product , feature or website Look through some of my work and </tspan><tspan x="534.846" y="817.273">experience! If you like what you see and have a project you need coded, &#10;</tspan><tspan x="742.414" y="849.273">don&#x2019;t hesitate to contact me.</tspan></text>
<g clip-path="url(#clip8_1_468)">
<g clip-path="url(#clip9_1_468)">
<g clip-path="url(#clip10_1_468)">
<path d="M806.999 899.461C806.999 898.321 806.633 897.25 805.935 896.318C806.201 895.42 806.267 894.28 806.201 892.967C806.168 892.415 805.735 892 805.203 892C804.903 892 802.375 892.035 800.911 893.382C799.646 893.14 798.315 893.14 797.018 893.382C795.587 892.035 793.059 892 792.726 892C792.193 892 791.761 892.415 791.728 892.967C791.628 894.28 791.728 895.42 791.994 896.318C791.295 897.285 790.929 898.356 790.929 899.461C790.929 901.879 792.726 904.055 795.454 905.092C795.354 905.299 795.288 905.541 795.221 905.782C792.327 905.472 790.962 902.743 790.896 902.639C790.663 902.121 790.064 901.914 789.565 902.19C789.066 902.432 788.866 903.054 789.132 903.572C789.199 903.744 791.029 907.44 795.055 907.855V910.964C795.055 911.551 795.487 912 796.053 912H801.876C802.441 912 802.874 911.551 802.874 910.964V906.853C802.874 906.231 802.741 905.644 802.508 905.126C805.203 904.055 806.999 901.914 806.999 899.461Z" fill="#505F79"/>
</g>
</g>
<g clip-path="url(#clip11_1_468)">
<path d="M841.644 895.034C838.156 895.034 835.289 897.862 835.289 901.379V911.31C835.289 911.689 835.599 912 835.979 912H839.572C839.952 912 840.263 911.689 840.263 911.31V901.655C840.263 900.896 840.884 900.276 841.644 900.276C842.404 900.276 843.026 900.896 843.026 901.655V911.31C843.026 911.689 843.337 912 843.717 912H847.309C847.689 912 848 911.689 848 911.31V901.379C848 897.896 845.168 895.034 841.644 895.034Z" fill="#505F79"/>
<path d="M832.283 898.276H828.691C828.311 898.276 828 898.587 828 898.966V911.311C828 911.69 828.311 912.001 828.691 912.001H832.283C832.663 912.001 832.974 911.69 832.974 911.311V898.966C832.974 898.587 832.663 898.276 832.283 898.276Z" fill="#505F79"/>
<path d="M830.487 892C829.105 892 828 893.103 828 894.483C828 895.862 829.105 896.966 830.487 896.966C831.869 896.966 832.974 895.862 832.974 894.483C832.974 893.103 831.869 892 830.487 892Z" fill="#505F79"/>
</g>
<g clip-path="url(#clip12_1_468)">
<path d="M877.464 912C882.161 912 885.083 908.539 885.083 904.074C885.083 902.391 884.809 900.871 882.898 900.414C883.363 899.141 884.705 895.457 884.705 894.277C884.705 893.238 884.08 892.368 882.966 892.368C881.19 892.368 879.598 897.512 879.1 898.738C878.714 897.625 876.908 892 875.315 892C874.078 892 873.497 892.894 873.497 894.019C873.497 895.398 874.858 898.973 875.351 900.347C875.101 900.257 874.83 900.179 874.554 900.179C873.623 900.179 872.632 901.316 872.632 902.234C872.632 902.582 872.827 903.07 872.95 903.394C871.482 903.785 870.917 904.746 870.917 906.195C870.913 909.015 873.636 912 877.464 912V912ZM881.489 896.219C881.649 895.738 882.329 893.707 882.966 893.707C883.308 893.707 883.4 894.055 883.4 894.332C883.4 895.078 881.864 899.2 881.525 900.113L880.172 899.879L881.489 896.219ZM874.747 893.888V893.887C874.747 893.422 875.324 892.102 876.589 895.727L877.967 899.645C877.346 899.594 876.864 899.527 876.558 899.7C876.124 898.575 874.747 895.024 874.747 893.888V893.888ZM874.655 901.531L874.656 901.532C875.822 901.532 877.327 905.227 877.327 905.727C877.327 905.926 877.132 906.172 876.905 906.172C876.073 906.172 873.843 903.167 873.843 902.355C873.847 902.054 874.348 901.531 874.655 901.531V901.531ZM873.315 904.589C873.768 904.589 875.476 906.945 875.476 907.445C875.476 907.637 875.169 907.769 875.011 907.769C874.37 907.769 874.119 907.163 872.978 905.762C871.795 906.922 873.793 909.156 875.298 909.156C876.337 909.156 877.013 908.211 876.811 907.515C876.958 907.515 877.141 907.527 877.277 907.492C877.321 908.55 877.639 909.812 878.937 909.902C878.937 909.867 879.017 909.624 879.017 909.612C879.017 908.932 878.595 908.339 878.595 907.647C878.595 906.542 879.458 905.472 880.334 904.847C880.653 904.613 881.039 904.467 881.413 904.335C881.799 904.191 882.209 904.022 882.503 903.733C882.458 903.296 882.276 902.909 881.83 902.909C880.728 902.909 877.03 903.066 877.03 901.358C877.03 901.097 877.034 900.847 877.723 900.847C879.009 900.847 882.273 901.159 883.228 901.983C883.948 902.612 884.196 906.405 881.994 908.808L881.992 908.808C880.833 910.058 879.353 910.707 877.625 910.707C875.261 910.707 873.393 909.433 872.494 907.257C871.813 905.562 872.646 904.589 873.315 904.589V904.589ZM878.066 903.886C878.453 904.007 878.851 904.043 879.249 904.121C878.954 904.332 878.693 904.59 878.441 904.867C878.329 904.535 878.193 904.211 878.066 903.886Z" fill="#505F79"/>
</g>
<g clip-path="url(#clip13_1_468)">
<g clip-path="url(#clip14_1_468)">
<path d="M927.766 892.37C927.433 891.971 926.866 891.872 926.433 892.171L924.5 893.5C923.6 892.536 922.333 892.005 920.966 892.005C918.266 892.005 916.033 894.197 916.033 896.921C916.033 897.32 916.066 897.686 916.166 898.051C913.833 897.553 912.433 895.858 911.9 892.802C911.833 892.403 911.533 892.104 911.133 892.005C910.766 891.905 910.366 892.071 910.133 892.37C910.066 892.436 904.566 900.078 912.533 906.556C911.766 908.184 909.466 909.579 908.566 910.044C908.133 910.244 907.933 910.709 908.033 911.174C908.133 911.639 908.533 911.938 909 911.938H910.733C920.866 911.938 925.466 906.921 925.566 895.692L927.666 893.699C928.066 893.367 928.1 892.769 927.766 892.37Z" fill="#505F79"/>
</g>
</g>
<path d="M966.404 895.88L968 894.338V894H962.472L958.532 903.91L954.049 894H948.252V894.338L950.117 896.605C950.298 896.773 950.393 897.018 950.369 897.265V906.177C950.427 906.498 950.323 906.828 950.1 907.061L948 909.633V909.966H953.954V909.629L951.854 907.061C951.627 906.827 951.519 906.503 951.565 906.177V898.468L956.792 909.971H957.399L961.893 898.468V907.631C961.893 907.873 961.893 907.923 961.737 908.081L960.12 909.661V910H967.963V909.662L966.405 908.12C966.268 908.016 966.197 907.841 966.227 907.671V896.33C966.197 896.159 966.267 895.984 966.404 895.88V895.88Z" fill="#505F79"/>
</g>
<rect x="858" y="996" width="40" height="40" rx="20" fill="white"/>
<g clip-path="url(#clip15_1_468)">
<path fill-rule="evenodd" clip-rule="evenodd" d="M871.293 1012.29C871.683 1011.9 872.317 1011.9 872.707 1012.29L878 1017.59L883.293 1012.29C883.683 1011.9 884.317 1011.9 884.707 1012.29C885.098 1012.68 885.098 1013.32 884.707 1013.71L878.707 1019.71C878.317 1020.1 877.683 1020.1 877.293 1019.71L871.293 1013.71C870.902 1013.32 870.902 1012.68 871.293 1012.29Z" fill="#172B4D"/>
</g>
<rect x="858" y="996" width="40" height="40" rx="20" stroke="#DFE1E6"/>
<g clip-path="url(#clip16_1_468)">
<text fill="#172B4D" xml:space="preserve" style="white-space: pre" font-family="Inter" font-size="40" font-weight="bold" letter-spacing="0em"><tspan x="707.543" y="1569.55">My Recent Works</tspan></text>
</g>
<g clip-path="url(#clip17_1_468)">
<g clip-path="url(#clip18_1_468)">
<rect x="300.5" y="1630.5" width="370" height="475" rx="8.5" fill="#EBF0EE" stroke="#D0D9D4"/>
<path d="M301 1891C301 1886.58 304.582 1883 309 1883H662C666.418 1883 670 1886.58 670 1891V2097C670 2101.42 666.418 2105 662 2105H309C304.582 2105 301 2101.42 301 2097V1891Z" fill="white"/>
<text fill="#172B4D" xml:space="preserve" style="white-space: pre" font-family="Poppins" font-size="24" font-weight="600" letter-spacing="0em"><tspan x="377.688" y="1919.9">Multi-Post Stories </tspan><tspan x="416.477" y="1951.9">Gain+Glory</tspan></text>
<g clip-path="url(#clip19_1_468)">
<rect x="321" y="1972" width="106" height="32" rx="4" fill="#EBF0EE"/>
<text fill="#172B4D" xml:space="preserve" style="white-space: pre" font-family="Inter" font-size="12" font-weight="600" letter-spacing="0.03em"><tspan x="333" y="1992.36">Ruby on Rails</tspan></text>
<rect x="435" y="1972" width="50" height="32" rx="4" fill="#EBF0EE"/>
<text fill="#172B4D" xml:space="preserve" style="white-space: pre" font-family="Inter" font-size="12" font-weight="600" letter-spacing="0.03em"><tspan x="447" y="1992.36">CSS</tspan></text>
<rect x="493" y="1972" width="89" height="32" rx="4" fill="#EBF0EE"/>
<text fill="#172B4D" xml:space="preserve" style="white-space: pre" font-family="Inter" font-size="12" font-weight="600" letter-spacing="0.03em"><tspan x="505" y="1992.36">JavaScript</tspan></text>
<rect x="590" y="1972" width="60" height="32" rx="4" fill="#EBF0EE"/>
<text fill="#172B4D" xml:space="preserve" style="white-space: pre" font-family="Inter" font-size="12" font-weight="600" letter-spacing="0.03em"><tspan x="602" y="1992.36">HTML</tspan></text>
</g>
<rect x="425" y="2033" width="122" height="48" rx="4" fill="#36B37F"/>
<text fill="white" xml:space="preserve" style="white-space: pre" font-family="Inter" font-size="17" font-weight="500" letter-spacing="0.03em"><tspan x="437.198" y="2063.18">See project</tspan></text>
<rect x="693.5" y="1630.5" width="370" height="475" rx="8.5" fill="#EBF0EE" stroke="#D0D9D4"/>
<path d="M694 1891C694 1886.58 697.582 1883 702 1883H1055C1059.42 1883 1063 1886.58 1063 1891V2097C1063 2101.42 1059.42 2105 1055 2105H702C697.582 2105 694 2101.42 694 2097V1891Z" fill="white"/>
<text fill="#172B4D" xml:space="preserve" style="white-space: pre" font-family="Poppins" font-size="24" font-weight="600" letter-spacing="0em"><tspan x="770.688" y="1919.9">Multi-Post Stories </tspan><tspan x="809.477" y="1951.9">Gain+Glory</tspan></text>
<g clip-path="url(#clip20_1_468)">
<rect x="714" y="1972" width="106" height="32" rx="4" fill="#EBF0EE"/>
<text fill="#172B4D" xml:space="preserve" style="white-space: pre" font-family="Inter" font-size="12" font-weight="600" letter-spacing="0.03em"><tspan x="726" y="1992.36">Ruby on Rails</tspan></text>
<rect x="828" y="1972" width="50" height="32" rx="4" fill="#EBF0EE"/>
<text fill="#172B4D" xml:space="preserve" style="white-space: pre" font-family="Inter" font-size="12" font-weight="600" letter-spacing="0.03em"><tspan x="840" y="1992.36">CSS</tspan></text>
<rect x="886" y="1972" width="89" height="32" rx="4" fill="#EBF0EE"/>
<text fill="#172B4D" xml:space="preserve" style="white-space: pre" font-family="Inter" font-size="12" font-weight="600" letter-spacing="0.03em"><tspan x="898" y="1992.36">JavaScript</tspan></text>
<rect x="983" y="1972" width="60" height="32" rx="4" fill="#EBF0EE"/>
<text fill="#172B4D" xml:space="preserve" style="white-space: pre" font-family="Inter" font-size="12" font-weight="600" letter-spacing="0.03em"><tspan x="995" y="1992.36">HTML</tspan></text>
</g>
<rect x="818" y="2033" width="122" height="48" rx="4" fill="#36B37F"/>
<text fill="white" xml:space="preserve" style="white-space: pre" font-family="Inter" font-size="17" font-weight="500" letter-spacing="0.03em"><tspan x="830.198" y="2063.18">See project</tspan></text>
<rect x="1086.5" y="1630.5" width="370" height="475" rx="8.5" fill="#EBF0EE" stroke="#D0D9D4"/>
<path d="M1087 1891C1087 1886.58 1090.58 1883 1095 1883H1448C1452.42 1883 1456 1886.58 1456 1891V2097C1456 2101.42 1452.42 2105 1448 2105H1095C1090.58 2105 1087 2101.42 1087 2097V1891Z" fill="white"/>
<text fill="#172B4D" xml:space="preserve" style="white-space: pre" font-family="Poppins" font-size="24" font-weight="600" letter-spacing="0em"><tspan x="1163.69" y="1919.9">Multi-Post Stories </tspan><tspan x="1202.48" y="1951.9">Gain+Glory</tspan></text>
<g clip-path="url(#clip21_1_468)">
<rect x="1107" y="1972" width="106" height="32" rx="4" fill="#EBF0EE"/>
<text fill="#172B4D" xml:space="preserve" style="white-space: pre" font-family="Inter" font-size="12" font-weight="600" letter-spacing="0.03em"><tspan x="1119" y="1992.36">Ruby on Rails</tspan></text>
<rect x="1221" y="1972" width="50" height="32" rx="4" fill="#EBF0EE"/>
<text fill="#172B4D" xml:space="preserve" style="white-space: pre" font-family="Inter" font-size="12" font-weight="600" letter-spacing="0.03em"><tspan x="1233" y="1992.36">CSS</tspan></text>
<rect x="1279" y="1972" width="89" height="32" rx="4" fill="#EBF0EE"/>
<text fill="#172B4D" xml:space="preserve" style="white-space: pre" font-family="Inter" font-size="12" font-weight="600" letter-spacing="0.03em"><tspan x="1291" y="1992.36">JavaScript</tspan></text>
<rect x="1376" y="1972" width="60" height="32" rx="4" fill="#EBF0EE"/>
<text fill="#172B4D" xml:space="preserve" style="white-space: pre" font-family="Inter" font-size="12" font-weight="600" letter-spacing="0.03em"><tspan x="1388" y="1992.36">HTML</tspan></text>
</g>
<rect x="1211" y="2033" width="122" height="48" rx="4" fill="#36B37F"/>
<text fill="white" xml:space="preserve" style="white-space: pre" font-family="Inter" font-size="17" font-weight="500" letter-spacing="0.03em"><tspan x="1223.2" y="2063.18">See project</tspan></text>
</g>
<rect x="300.5" y="2136.5" width="370" height="475" rx="8.5" fill="#EBF0EE" stroke="#D0D9D4"/>
<path d="M301 2397C301 2392.58 304.582 2389 309 2389H662C666.418 2389 670 2392.58 670 2397V2603C670 2607.42 666.418 2611 662 2611H309C304.582 2611 301 2607.42 301 2603V2397Z" fill="white"/>
<text fill="#172B4D" xml:space="preserve" style="white-space: pre" font-family="Poppins" font-size="24" font-weight="600" letter-spacing="0em"><tspan x="377.688" y="2425.9">Multi-Post Stories </tspan><tspan x="416.477" y="2457.9">Gain+Glory</tspan></text>
<g clip-path="url(#clip22_1_468)">
<rect x="321" y="2478" width="106" height="32" rx="4" fill="#EBF0EE"/>
<text fill="#172B4D" xml:space="preserve" style="white-space: pre" font-family="Inter" font-size="12" font-weight="600" letter-spacing="0.03em"><tspan x="333" y="2498.36">Ruby on Rails</tspan></text>
<rect x="435" y="2478" width="50" height="32" rx="4" fill="#EBF0EE"/>
<text fill="#172B4D" xml:space="preserve" style="white-space: pre" font-family="Inter" font-size="12" font-weight="600" letter-spacing="0.03em"><tspan x="447" y="2498.36">CSS</tspan></text>
<rect x="493" y="2478" width="89" height="32" rx="4" fill="#EBF0EE"/>
<text fill="#172B4D" xml:space="preserve" style="white-space: pre" font-family="Inter" font-size="12" font-weight="600" letter-spacing="0.03em"><tspan x="505" y="2498.36">JavaScript</tspan></text>
<rect x="590" y="2478" width="60" height="32" rx="4" fill="#EBF0EE"/>
<text fill="#172B4D" xml:space="preserve" style="white-space: pre" font-family="Inter" font-size="12" font-weight="600" letter-spacing="0.03em"><tspan x="602" y="2498.36">HTML</tspan></text>
</g>
<rect x="425" y="2539" width="122" height="48" rx="4" fill="#36B37F"/>
<text fill="white" xml:space="preserve" style="white-space: pre" font-family="Inter" font-size="17" font-weight="500" letter-spacing="0.03em"><tspan x="437.198" y="2569.18">See project</tspan></text>
<rect x="693.5" y="2136.5" width="370" height="475" rx="8.5" fill="#EBF0EE" stroke="#D0D9D4"/>
<path d="M694 2397C694 2392.58 697.582 2389 702 2389H1055C1059.42 2389 1063 2392.58 1063 2397V2603C1063 2607.42 1059.42 2611 1055 2611H702C697.582 2611 694 2607.42 694 2603V2397Z" fill="white"/>
<text fill="#172B4D" xml:space="preserve" style="white-space: pre" font-family="Poppins" font-size="24" font-weight="600" letter-spacing="0em"><tspan x="770.688" y="2425.9">Multi-Post Stories </tspan><tspan x="809.477" y="2457.9">Gain+Glory</tspan></text>
<g clip-path="url(#clip23_1_468)">
<rect x="714" y="2478" width="106" height="32" rx="4" fill="#EBF0EE"/>
<text fill="#172B4D" xml:space="preserve" style="white-space: pre" font-family="Inter" font-size="12" font-weight="600" letter-spacing="0.03em"><tspan x="726" y="2498.36">Ruby on Rails</tspan></text>
<rect x="828" y="2478" width="50" height="32" rx="4" fill="#EBF0EE"/>
<text fill="#172B4D" xml:space="preserve" style="white-space: pre" font-family="Inter" font-size="12" font-weight="600" letter-spacing="0.03em"><tspan x="840" y="2498.36">CSS</tspan></text>
<rect x="886" y="2478" width="89" height="32" rx="4" fill="#EBF0EE"/>
<text fill="#172B4D" xml:space="preserve" style="white-space: pre" font-family="Inter" font-size="12" font-weight="600" letter-spacing="0.03em"><tspan x="898" y="2498.36">JavaScript</tspan></text>
<rect x="983" y="2478" width="60" height="32" rx="4" fill="#EBF0EE"/>
<text fill="#172B4D" xml:space="preserve" style="white-space: pre" font-family="Inter" font-size="12" font-weight="600" letter-spacing="0.03em"><tspan x="995" y="2498.36">HTML</tspan></text>
</g>
<rect x="818" y="2539" width="122" height="48" rx="4" fill="#36B37F"/>
<text fill="white" xml:space="preserve" style="white-space: pre" font-family="Inter" font-size="17" font-weight="500" letter-spacing="0.03em"><tspan x="830.198" y="2569.18">See project</tspan></text>
<rect x="1086.5" y="2136.5" width="370" height="475" rx="8.5" fill="#EBF0EE" stroke="#D0D9D4"/>
<path d="M1087 2397C1087 2392.58 1090.58 2389 1095 2389H1448C1452.42 2389 1456 2392.58 1456 2397V2603C1456 2607.42 1452.42 2611 1448 2611H1095C1090.58 2611 1087 2607.42 1087 2603V2397Z" fill="white"/>
<text fill="#172B4D" xml:space="preserve" style="white-space: pre" font-family="Poppins" font-size="24" font-weight="600" letter-spacing="0em"><tspan x="1163.69" y="2425.9">Multi-Post Stories </tspan><tspan x="1202.48" y="2457.9">Gain+Glory</tspan></text>
<g clip-path="url(#clip24_1_468)">
<rect x="1107" y="2478" width="106" height="32" rx="4" fill="#EBF0EE"/>
<text fill="#172B4D" xml:space="preserve" style="white-space: pre" font-family="Inter" font-size="12" font-weight="600" letter-spacing="0.03em"><tspan x="1119" y="2498.36">Ruby on Rails</tspan></text>
<rect x="1221" y="2478" width="50" height="32" rx="4" fill="#EBF0EE"/>
<text fill="#172B4D" xml:space="preserve" style="white-space: pre" font-family="Inter" font-size="12" font-weight="600" letter-spacing="0.03em"><tspan x="1233" y="2498.36">CSS</tspan></text>
<rect x="1279" y="2478" width="89" height="32" rx="4" fill="#EBF0EE"/>
<text fill="#172B4D" xml:space="preserve" style="white-space: pre" font-family="Inter" font-size="12" font-weight="600" letter-spacing="0.03em"><tspan x="1291" y="2498.36">JavaScript</tspan></text>
<rect x="1376" y="2478" width="60" height="32" rx="4" fill="#EBF0EE"/>
<text fill="#172B4D" xml:space="preserve" style="white-space: pre" font-family="Inter" font-size="12" font-weight="600" letter-spacing="0.03em"><tspan x="1388" y="2498.36">HTML</tspan></text>
</g>
<rect x="1211" y="2539" width="122" height="48" rx="4" fill="#36B37F"/>
<text fill="white" xml:space="preserve" style="white-space: pre" font-family="Inter" font-size="17" font-weight="500" letter-spacing="0.03em"><tspan x="1223.2" y="2569.18">See project</tspan></text>
</g>
<g clip-path="url(#clip25_1_468)">
<text fill="#172B4D" xml:space="preserve" style="white-space: pre" font-family="Inter" font-size="40" font-weight="bold" letter-spacing="0em"><tspan x="784.02" y="2841.55">About me</tspan></text>
<text fill="#42526E" xml:space="preserve" style="white-space: pre" font-family="Inter" font-size="20" letter-spacing="0em"><tspan x="472.652" y="2898.27"> I can help you build a product , feature or website Look through some of my work and </tspan><tspan x="535.846" y="2930.27">experience! If you like what you see and have a project you need coded, &#10;</tspan><tspan x="743.414" y="2962.27">don&#x2019;t hesitate to contact me.</tspan></text>
<rect x="802.5" y="2995" width="153" height="48" rx="4" fill="#36B37F"/>
<text fill="white" xml:space="preserve" style="white-space: pre" font-family="Inter" font-size="17" font-weight="500" letter-spacing="0.03em"><tspan x="814.564" y="3025.18">Get my resume</tspan></text>
</g>
<rect x="300.5" y="3112" width="370" height="317" rx="8.5" fill="#EBF0EE" stroke="#C1C7D0"/>
<g filter="url(#filter0_d_1_468)">
<circle cx="486" cy="3192.5" r="40" fill="white"/>
</g>
<g clip-path="url(#clip26_1_468)">
<path d="M498.27 3191.4H507.704C507.851 3191.4 507.999 3191.25 507.999 3191.1C507.336 3181.24 500.186 3173.07 490.753 3171.01C490.532 3170.94 490.31 3171.24 490.532 3171.46C494.954 3176.39 497.754 3183.45 498.049 3191.17C497.975 3191.32 498.123 3191.4 498.27 3191.4Z" fill="#091E42"/>
<path d="M486.184 3170.5C486.11 3170.5 486.037 3170.5 485.963 3170.5C485.889 3170.5 485.816 3170.5 485.742 3170.5C480.067 3174.84 476.529 3182.57 476.161 3191.1C476.161 3191.25 476.308 3191.4 476.455 3191.4H495.471C495.618 3191.4 495.765 3191.25 495.765 3191.1C495.471 3182.57 491.859 3174.84 486.184 3170.5Z" fill="#36B37E"/>
<path d="M476.455 3193.6C476.308 3193.6 476.161 3193.75 476.161 3193.9C476.529 3202.51 480.067 3210.16 485.742 3214.5C485.816 3214.5 485.889 3214.5 485.963 3214.5C486.037 3214.5 486.11 3214.5 486.184 3214.5C491.859 3210.16 495.397 3202.43 495.765 3193.9C495.765 3193.75 495.618 3193.6 495.471 3193.6H476.455Z" fill="#091E42"/>
<path d="M497.975 3193.82C497.681 3201.55 494.954 3208.61 490.532 3213.54C490.384 3213.76 490.532 3214.06 490.753 3213.98C500.186 3211.92 507.409 3203.76 507.999 3193.9C507.999 3193.75 507.851 3193.6 507.704 3193.6H498.27C498.123 3193.6 497.975 3193.75 497.975 3193.82Z" fill="#36B37E"/>
<path d="M473.728 3193.6H464.294C464.147 3193.6 464 3193.75 464 3193.9C464.589 3203.76 471.812 3211.92 481.246 3213.98C481.467 3214.06 481.688 3213.76 481.467 3213.54C476.971 3208.61 474.244 3201.55 473.949 3193.82C474.023 3193.75 473.876 3193.6 473.728 3193.6Z" fill="#36B37E"/>
<path d="M474.023 3191.17C474.318 3183.45 477.045 3176.39 481.467 3171.46C481.614 3171.24 481.467 3170.94 481.246 3171.01C471.812 3173.07 464.589 3181.24 464 3191.1C464 3191.25 464.147 3191.4 464.294 3191.4H473.728C473.876 3191.4 474.023 3191.32 474.023 3191.17Z" fill="#091E42"/>
</g>
<g clip-path="url(#clip27_1_468)">
<text fill="#344563" xml:space="preserve" style="white-space: pre" font-family="Inter" font-size="24" font-weight="600" letter-spacing="0em"><tspan x="421.609" y="3285.23">Languages</tspan></text>
<g clip-path="url(#clip28_1_468)">
<rect x="346.5" y="3316.5" width="89" height="40" rx="8" fill="white"/>
<text fill="#36B37E" xml:space="preserve" style="white-space: pre" font-family="Inter" font-size="12" font-weight="600" letter-spacing="0.03em"><tspan x="358.5" y="3340.86">JavaScript</tspan></text>
<rect x="443.5" y="3316.5" width="55" height="40" rx="8" fill="white"/>
<text fill="#36B37E" xml:space="preserve" style="white-space: pre" font-family="Inter" font-size="12" font-weight="600" letter-spacing="0.03em"><tspan x="455.5" y="3340.86">Ruby</tspan></text>
<rect x="506.5" y="3316.5" width="60" height="40" rx="8" fill="white"/>
<text fill="#36B37E" xml:space="preserve" style="white-space: pre" font-family="Inter" font-size="12" font-weight="600" letter-spacing="0.03em"><tspan x="518.5" y="3340.86">HTML</tspan></text>
<rect x="574.5" y="3316.5" width="50" height="40" rx="8" fill="white"/>
<text fill="#36B37E" xml:space="preserve" style="white-space: pre" font-family="Inter" font-size="12" font-weight="600" letter-spacing="0.03em"><tspan x="586.5" y="3340.86">CSS</tspan></text>
</g>
</g>
<rect x="693.5" y="3112" width="370" height="317" rx="8.5" fill="#EBF0EE" stroke="#C1C7D0"/>
<g clip-path="url(#clip29_1_468)">
<text fill="#344563" xml:space="preserve" style="white-space: pre" font-family="Inter" font-size="24" font-weight="600" letter-spacing="0em"><tspan x="806.852" y="3285.23">Frameworks</tspan></text>
<g clip-path="url(#clip30_1_468)">
<g clip-path="url(#clip31_1_468)">
<rect x="749.5" y="3316.5" width="73" height="40" rx="8" fill="white"/>
<text fill="#36B37E" xml:space="preserve" style="white-space: pre" font-family="Inter" font-size="12" font-weight="600" letter-spacing="0.03em"><tspan x="761.5" y="3340.86">React.js</tspan></text>
<rect x="830.5" y="3316.5" width="106" height="40" rx="8" fill="white"/>
<text fill="#36B37E" xml:space="preserve" style="white-space: pre" font-family="Inter" font-size="12" font-weight="600" letter-spacing="0.03em"><tspan x="842.5" y="3340.86">Ruby on Rails</tspan></text>
<rect x="944.5" y="3316.5" width="63" height="40" rx="8" fill="white"/>
<text fill="#36B37E" xml:space="preserve" style="white-space: pre" font-family="Inter" font-size="12" font-weight="600" letter-spacing="0.03em"><tspan x="956.5" y="3340.86">RSpec</tspan></text>
</g>
<g clip-path="url(#clip32_1_468)">
<rect x="837" y="3364.5" width="83" height="40" rx="8" fill="white"/>
<text fill="#36B37E" xml:space="preserve" style="white-space: pre" font-family="Inter" font-size="12" font-weight="600" letter-spacing="0.03em"><tspan x="849" y="3388.86">Capybara</tspan></text>
</g>
</g>
</g>
<g filter="url(#filter1_d_1_468)">
<circle cx="879" cy="3192.5" r="40" fill="white"/>
</g>
<path d="M871 3197.3C871 3197.7 871.2 3198.1 871.6 3198.3L876.6 3201.3C877.2 3201.7 877.8 3201.3 877.8 3200.7V3195.1C877.8 3194.9 877.6 3194.5 877.4 3194.5L872.2 3191.1C871.8 3190.9 871 3191.3 871 3191.9V3197.3Z" fill="#091E42"/>
<path d="M878.6 3194.9V3200.5C878.6 3201.1 879.2 3201.5 879.8 3201.1L884.8 3198.1C885.2 3197.9 885.4 3197.5 885.4 3197.1V3191.9C885.4 3191.3 884.8 3190.9 884.2 3191.3L879 3194.1C878.8 3194.3 878.6 3194.5 878.6 3194.9Z" fill="#091E42"/>
<path d="M884.2 3190.3L878.6 3193.5C878.4 3193.7 878 3193.7 877.8 3193.5L872.2 3190.3C871.6 3189.9 871.6 3189.3 872.2 3188.9L877.8 3185.7C878 3185.5 878.4 3185.5 878.6 3185.7L884.2 3188.9C884.8 3189.1 884.8 3189.9 884.2 3190.3Z" fill="#36B37E"/>
<path d="M859 3208.5C859 3208.9 859.2 3209.3 859.6 3209.5L864.6 3212.5C865.2 3212.9 865.8 3212.5 865.8 3211.9V3206.3C865.8 3206.1 865.6 3205.7 865.4 3205.7L860.2 3202.7C859.6 3202.3 859 3202.7 859 3203.3V3208.5V3208.5Z" fill="#091E42"/>
<path d="M866.6 3205.9V3211.5C866.6 3212.1 867.2 3212.5 867.8 3212.1L872.8 3209.1C873.2 3208.9 873.4 3208.5 873.4 3208.1V3202.5C873.4 3201.9 872.8 3201.5 872.2 3201.9L867 3205.3C866.8 3205.5 866.6 3205.7 866.6 3205.9Z" fill="#091E42"/>
<path d="M872.2 3201.3L866.6 3204.5C866.4 3204.7 866 3204.7 865.8 3204.5L860.2 3201.3C859.6 3200.9 859.6 3200.3 860.2 3199.9L865.8 3196.7C866 3196.5 866.4 3196.5 866.6 3196.7L872.2 3199.9C872.6 3200.3 872.6 3201.1 872.2 3201.3Z" fill="#36B37E"/>
<path d="M883.2 3208.5C883.2 3208.9 883.4 3209.3 883.8 3209.5L888.8 3212.5C889.4 3212.9 890 3212.5 890 3211.9V3206.3C890 3206.1 889.8 3205.7 889.6 3205.7L884.4 3202.7C883.8 3202.3 883.2 3202.7 883.2 3203.3V3208.5V3208.5Z" fill="#091E42"/>
<path d="M890.6 3205.9V3211.5C890.6 3212.1 891.2 3212.5 891.8 3212.1L896.8 3209.1C897.2 3208.9 897.4 3208.5 897.4 3208.1V3202.5C897.4 3201.9 896.8 3201.5 896.2 3201.9L891 3205.3C890.8 3205.5 890.6 3205.7 890.6 3205.9Z" fill="#091E42"/>
<path d="M896.2 3201.3L890.6 3204.5C890.4 3204.7 890 3204.7 889.8 3204.5L884.2 3201.3C883.6 3200.9 883.6 3200.3 884.2 3199.9L889.8 3196.7C890 3196.5 890.4 3196.5 890.6 3196.7L896.2 3199.9C896.8 3200.3 896.8 3201.1 896.2 3201.3Z" fill="#36B37E"/>
<path d="M859 3186.3C859 3186.7 859.2 3187.1 859.6 3187.3L864.6 3190.3C865 3190.5 865.8 3190.1 865.8 3189.5V3183.7C865.8 3183.5 865.6 3183.1 865.4 3183.1L860.2 3180.1C859.6 3179.9 859 3180.1 859 3180.9V3186.3Z" fill="#091E42"/>
<path d="M866.6 3183.7V3189.3C866.6 3189.9 867.2 3190.3 867.8 3189.9L872.8 3186.9C873.2 3186.7 873.4 3186.3 873.4 3185.9V3180.9C873.4 3180.3 872.8 3179.9 872.2 3180.3L867 3183.1C866.8 3183.3 866.6 3183.5 866.6 3183.7Z" fill="#091E42"/>
<path d="M872.2 3179.1L866.6 3182.3C866.4 3182.5 866 3182.5 865.8 3182.3L860.2 3179.1C859.6 3178.7 859.6 3178.1 860.2 3177.7L865.8 3174.5C866 3174.5 866.4 3174.5 866.6 3174.7L872.2 3177.9C872.6 3178.1 872.6 3178.9 872.2 3179.1Z" fill="#36B37E"/>
<path d="M883.2 3186.3C883.2 3186.7 883.4 3187.1 883.8 3187.3L888.8 3190.3C889.4 3190.7 890 3190.3 890 3189.7V3183.7C890 3183.5 889.8 3183.1 889.6 3183.1L884.4 3180.1C883.8 3179.7 883.2 3180.1 883.2 3180.7V3186.3V3186.3Z" fill="#091E42"/>
<path d="M890.6 3183.7V3189.3C890.6 3189.9 891.2 3190.3 891.8 3189.9L896.8 3186.9C897.2 3186.7 897.4 3186.3 897.4 3185.9V3180.9C897.4 3180.3 896.8 3179.9 896.2 3180.3L891 3183.1C890.8 3183.3 890.6 3183.5 890.6 3183.7Z" fill="#091E42"/>
<path d="M896.2 3179.1L890.6 3182.5C890.4 3182.5 890.2 3182.5 889.8 3182.5L884.2 3179.3C883.6 3178.9 883.6 3178.3 884.2 3177.9L889.8 3174.7C890 3174.5 890.4 3174.5 890.6 3174.7L896.2 3177.9C896.8 3178.1 896.8 3178.9 896.2 3179.1Z" fill="#36B37E"/>
<rect x="1086.5" y="3112" width="370" height="317" rx="8.5" fill="#EBF0EE" stroke="#C1C7D0"/>
<g clip-path="url(#clip33_1_468)">
<text fill="#344563" xml:space="preserve" style="white-space: pre" font-family="Inter" font-size="24" font-weight="600" letter-spacing="0em"><tspan x="1240.9" y="3285.23">Skills</tspan></text>
<g clip-path="url(#clip34_1_468)">
<g clip-path="url(#clip35_1_468)">
<rect x="1125" y="3316.5" width="165" height="40" rx="8" fill="white"/>
<text fill="#36B37E" xml:space="preserve" style="white-space: pre" font-family="Inter" font-size="12" font-weight="600" letter-spacing="0.03em"><tspan x="1137" y="3340.86">Database Management</tspan></text>
<rect x="1298" y="3316.5" width="120" height="40" rx="8" fill="white"/>
<text fill="#36B37E" xml:space="preserve" style="white-space: pre" font-family="Inter" font-size="12" font-weight="600" letter-spacing="0.03em"><tspan x="1310" y="3340.86">Version Control</tspan></text>
</g>
<g clip-path="url(#clip36_1_468)">
<rect x="1128" y="3364.5" width="44" height="40" rx="8" fill="white"/>
<text fill="#36B37E" xml:space="preserve" style="white-space: pre" font-family="Inter" font-size="12" font-weight="600" letter-spacing="0.03em"><tspan x="1140" y="3388.86">CLI</tspan></text>
<rect x="1180" y="3364.5" width="136" height="40" rx="8" fill="white"/>
<text fill="#36B37E" xml:space="preserve" style="white-space: pre" font-family="Inter" font-size="12" font-weight="600" letter-spacing="0.03em"><tspan x="1192" y="3388.86">Web Development</tspan></text>
<rect x="1324" y="3364.5" width="91" height="40" rx="8" fill="white"/>
<text fill="#36B37E" xml:space="preserve" style="white-space: pre" font-family="Inter" font-size="12" font-weight="600" letter-spacing="0.03em"><tspan x="1336" y="3388.86">API Design</tspan></text>
</g>
</g>
</g>
<g filter="url(#filter2_d_1_468)">
<circle cx="1272" cy="3192.5" r="40" fill="white"/>
</g>
<g clip-path="url(#clip37_1_468)">
<path d="M1268.2 3172.5H1277.2C1278.4 3172.5 1279.2 3173.7 1279 3174.9L1274.6 3189.3H1279.2C1280.6 3189.3 1281.6 3190.7 1281 3192.1L1272 3210.5C1271.6 3211.1 1270.6 3210.9 1270.8 3210.1L1273 3196.1H1266C1264.8 3196.1 1264 3195.1 1264.2 3193.9L1266.4 3174.3C1266.4 3173.3 1267.2 3172.5 1268.2 3172.5Z" fill="#36B37E"/>
<path d="M1250.44 3185.17L1253.64 3183.32C1254.07 3183.07 1254.61 3183.34 1254.79 3183.82L1256.22 3189.92L1257.86 3188.98C1258.36 3188.69 1259.01 3188.99 1259.09 3189.62L1259.72 3198.12C1259.7 3198.42 1259.3 3198.55 1259.21 3198.22L1257.07 3192.71L1254.58 3194.15C1254.15 3194.4 1253.65 3194.2 1253.48 3193.73L1250.17 3186.19C1249.96 3185.83 1250.08 3185.38 1250.44 3185.17Z" fill="#091E42"/>
<path d="M1294.63 3185.17L1291.42 3183.32C1290.99 3183.07 1290.45 3183.34 1290.28 3183.82L1288.84 3189.92L1287.2 3188.98C1286.7 3188.69 1286.05 3188.99 1285.97 3189.62L1285.34 3198.12C1285.36 3198.42 1285.76 3198.55 1285.86 3198.22L1287.99 3192.71L1290.49 3194.15C1290.91 3194.4 1291.41 3194.2 1291.59 3193.73L1294.89 3186.19C1295.1 3185.83 1294.98 3185.38 1294.63 3185.17Z" fill="#091E42"/>
</g>
<g clip-path="url(#clip38_1_468)">
<text fill="#172B4D" xml:space="preserve" style="white-space: pre" font-family="Inter" font-size="30" font-weight="bold" letter-spacing="0em"><tspan x="293" y="3612.91">I&#39;m always interested in hearing </tspan><tspan x="293" y="3664.91">about new projects, so if you&#39;d </tspan><tspan x="293" y="3716.91">like to chat please get in touch.</tspan></text>
</g>
<g clip-path="url(#clip39_1_468)">
<g clip-path="url(#clip40_1_468)">
<rect x="780.5" y="3526.5" width="329" height="47" rx="3.5" fill="white" stroke="#D0D9D4"/>
<text fill="#6B778C" xml:space="preserve" style="white-space: pre" font-family="Inter" font-size="15" font-style="italic" letter-spacing="0em"><tspan x="796" y="3555.45">First Name</tspan></text>
<rect x="1134.5" y="3526.5" width="329" height="47" rx="3.5" fill="white" stroke="#D0D9D4"/>
<text fill="#6B778C" xml:space="preserve" style="white-space: pre" font-family="Inter" font-size="15" font-style="italic" letter-spacing="0em"><tspan x="1150" y="3555.45">Last Name</tspan></text>
</g>
<rect x="780.5" y="3598.5" width="683" height="47" rx="3.5" fill="white" stroke="#D0D9D4"/>
<text fill="#6B778C" xml:space="preserve" style="white-space: pre" font-family="Inter" font-size="15" font-style="italic" letter-spacing="0em"><tspan x="796" y="3627.45">Email address</tspan></text>
<rect x="780.5" y="3670.5" width="683" height="113" rx="3.5" fill="white" stroke="#60C095"/>
<text fill="#42526E" xml:space="preserve" style="white-space: pre" font-family="Inter" font-size="15" letter-spacing="0em"><tspan x="792" y="3699.45">Hey I&#x2019;d like to connect to...</tspan></text>
<path fill-rule="evenodd" clip-rule="evenodd" d="M1446.79 3774.79C1446.4 3775.18 1446.4 3775.82 1446.79 3776.21C1447.18 3776.6 1447.82 3776.6 1448.21 3776.21L1456.21 3768.21C1456.6 3767.82 1456.6 3767.18 1456.21 3766.79C1455.82 3766.4 1455.18 3766.4 1454.79 3766.79L1446.79 3774.79ZM1451.29 3775.29C1450.9 3775.68 1450.9 3776.32 1451.29 3776.71C1451.68 3777.1 1452.32 3777.1 1452.71 3776.71L1456.71 3772.71C1457.1 3772.32 1457.1 3771.68 1456.71 3771.29C1456.32 3770.9 1455.68 3770.9 1455.29 3771.29L1451.29 3775.29Z" fill="#60C095"/>
<rect x="780" y="3808" width="129" height="48" rx="4" fill="#36B37F"/>
<text fill="white" xml:space="preserve" style="white-space: pre" font-family="Inter" font-size="17" font-weight="500" letter-spacing="0.03em"><tspan x="792.256" y="3838.18">Get in touch</tspan></text>
</g>
<g clip-path="url(#clip41_1_468)">
<g clip-path="url(#clip42_1_468)">
<g clip-path="url(#clip43_1_468)">
<path d="M806.999 4127.46C806.999 4126.32 806.633 4125.25 805.935 4124.32C806.201 4123.42 806.267 4122.28 806.201 4120.97C806.168 4120.41 805.735 4120 805.203 4120C804.903 4120 802.375 4120.03 800.911 4121.38C799.646 4121.14 798.315 4121.14 797.018 4121.38C795.587 4120.03 793.059 4120 792.726 4120C792.193 4120 791.761 4120.41 791.728 4120.97C791.628 4122.28 791.728 4123.42 791.994 4124.32C791.295 4125.28 790.929 4126.36 790.929 4127.46C790.929 4129.88 792.726 4132.06 795.454 4133.09C795.354 4133.3 795.288 4133.54 795.221 4133.78C792.327 4133.47 790.962 4130.74 790.896 4130.64C790.663 4130.12 790.064 4129.91 789.565 4130.19C789.066 4130.43 788.866 4131.05 789.132 4131.57C789.199 4131.74 791.029 4135.44 795.055 4135.85V4138.96C795.055 4139.55 795.487 4140 796.053 4140H801.876C802.441 4140 802.874 4139.55 802.874 4138.96V4134.85C802.874 4134.23 802.741 4133.64 802.508 4133.13C805.203 4132.06 806.999 4129.91 806.999 4127.46Z" fill="#505F79"/>
</g>
</g>
<g clip-path="url(#clip44_1_468)">
<path d="M841.644 4123.03C838.156 4123.03 835.289 4125.86 835.289 4129.38V4139.31C835.289 4139.69 835.599 4140 835.979 4140H839.572C839.952 4140 840.263 4139.69 840.263 4139.31V4129.65C840.263 4128.9 840.884 4128.28 841.644 4128.28C842.404 4128.28 843.026 4128.9 843.026 4129.65V4139.31C843.026 4139.69 843.337 4140 843.717 4140H847.309C847.689 4140 848 4139.69 848 4139.31V4129.38C848 4125.9 845.168 4123.03 841.644 4123.03Z" fill="#505F79"/>
<path d="M832.283 4126.28H828.691C828.311 4126.28 828 4126.59 828 4126.97V4139.31C828 4139.69 828.311 4140 828.691 4140H832.283C832.663 4140 832.974 4139.69 832.974 4139.31V4126.97C832.974 4126.59 832.663 4126.28 832.283 4126.28Z" fill="#505F79"/>
<path d="M830.487 4120C829.105 4120 828 4121.1 828 4122.48C828 4123.86 829.105 4124.97 830.487 4124.97C831.869 4124.97 832.974 4123.86 832.974 4122.48C832.974 4121.1 831.869 4120 830.487 4120Z" fill="#505F79"/>
</g>
<g clip-path="url(#clip45_1_468)">
<path d="M877.464 4140C882.161 4140 885.083 4136.54 885.083 4132.07C885.083 4130.39 884.809 4128.87 882.898 4128.41C883.363 4127.14 884.705 4123.46 884.705 4122.28C884.705 4121.24 884.08 4120.37 882.966 4120.37C881.19 4120.37 879.598 4125.51 879.1 4126.74C878.714 4125.63 876.908 4120 875.315 4120C874.078 4120 873.497 4120.89 873.497 4122.02C873.497 4123.4 874.858 4126.97 875.351 4128.35C875.101 4128.26 874.83 4128.18 874.554 4128.18C873.623 4128.18 872.632 4129.32 872.632 4130.23C872.632 4130.58 872.827 4131.07 872.95 4131.39C871.482 4131.79 870.917 4132.75 870.917 4134.19C870.913 4137.01 873.636 4140 877.464 4140V4140ZM881.489 4124.22C881.649 4123.74 882.329 4121.71 882.966 4121.71C883.308 4121.71 883.4 4122.05 883.4 4122.33C883.4 4123.08 881.864 4127.2 881.525 4128.11L880.172 4127.88L881.489 4124.22ZM874.747 4121.89V4121.89C874.747 4121.42 875.324 4120.1 876.589 4123.73L877.967 4127.64C877.346 4127.59 876.864 4127.53 876.558 4127.7C876.124 4126.57 874.747 4123.02 874.747 4121.89V4121.89ZM874.655 4129.53L874.656 4129.53C875.822 4129.53 877.327 4133.23 877.327 4133.73C877.327 4133.93 877.132 4134.17 876.905 4134.17C876.073 4134.17 873.843 4131.17 873.843 4130.35C873.847 4130.05 874.348 4129.53 874.655 4129.53V4129.53ZM873.315 4132.59C873.768 4132.59 875.476 4134.94 875.476 4135.44C875.476 4135.64 875.169 4135.77 875.011 4135.77C874.37 4135.77 874.119 4135.16 872.978 4133.76C871.795 4134.92 873.793 4137.16 875.298 4137.16C876.337 4137.16 877.013 4136.21 876.811 4135.51C876.958 4135.51 877.141 4135.53 877.277 4135.49C877.321 4136.55 877.639 4137.81 878.937 4137.9C878.937 4137.87 879.017 4137.62 879.017 4137.61C879.017 4136.93 878.595 4136.34 878.595 4135.65C878.595 4134.54 879.458 4133.47 880.334 4132.85C880.653 4132.61 881.039 4132.47 881.413 4132.33C881.799 4132.19 882.209 4132.02 882.503 4131.73C882.458 4131.3 882.276 4130.91 881.83 4130.91C880.728 4130.91 877.03 4131.07 877.03 4129.36C877.03 4129.1 877.034 4128.85 877.723 4128.85C879.009 4128.85 882.273 4129.16 883.228 4129.98C883.948 4130.61 884.196 4134.41 881.994 4136.81L881.992 4136.81C880.833 4138.06 879.353 4138.71 877.625 4138.71C875.261 4138.71 873.393 4137.43 872.494 4135.26C871.813 4133.56 872.646 4132.59 873.315 4132.59V4132.59ZM878.066 4131.89C878.453 4132.01 878.851 4132.04 879.249 4132.12C878.954 4132.33 878.693 4132.59 878.441 4132.87C878.329 4132.53 878.193 4132.21 878.066 4131.89Z" fill="#505F79"/>
</g>
<g clip-path="url(#clip46_1_468)">
<g clip-path="url(#clip47_1_468)">
<path d="M927.766 4120.37C927.433 4119.97 926.866 4119.87 926.433 4120.17L924.5 4121.5C923.6 4120.54 922.333 4120 920.966 4120C918.266 4120 916.033 4122.2 916.033 4124.92C916.033 4125.32 916.066 4125.69 916.166 4126.05C913.833 4125.55 912.433 4123.86 911.9 4120.8C911.833 4120.4 911.533 4120.1 911.133 4120C910.766 4119.9 910.366 4120.07 910.133 4120.37C910.066 4120.44 904.566 4128.08 912.533 4134.56C911.766 4136.18 909.466 4137.58 908.566 4138.04C908.133 4138.24 907.933 4138.71 908.033 4139.17C908.133 4139.64 908.533 4139.94 909 4139.94H910.733C920.866 4139.94 925.466 4134.92 925.566 4123.69L927.666 4121.7C928.066 4121.37 928.1 4120.77 927.766 4120.37Z" fill="#505F79"/>
</g>
</g>
<path d="M966.404 4123.88L968 4122.34V4122H962.472L958.532 4131.91L954.049 4122H948.252V4122.34L950.117 4124.61C950.298 4124.77 950.393 4125.02 950.369 4125.26V4134.18C950.427 4134.5 950.323 4134.83 950.1 4135.06L948 4137.63V4137.97H953.954V4137.63L951.854 4135.06C951.627 4134.83 951.519 4134.5 951.565 4134.18V4126.47L956.792 4137.97H957.399L961.893 4126.47V4135.63C961.893 4135.87 961.893 4135.92 961.737 4136.08L960.12 4137.66V4138H967.963V4137.66L966.405 4136.12C966.268 4136.02 966.197 4135.84 966.227 4135.67V4124.33C966.197 4124.16 966.267 4123.98 966.404 4123.88V4123.88Z" fill="#505F79"/>
</g>
<rect x="158" y="4094" width="1440" height="1" fill="#DFE1E6"/>
<g clip-path="url(#clip48_1_468)">
<path d="M1539.09 2910.07L1638.88 2944H1495.7L1477.35 2942L1468.45 2936.43L1498.82 2910.07H1539.09Z" fill="#172B4D"/>
<path d="M1525.96 2847.76V2842.42C1525.96 2842.42 1514.28 2819.27 1512.61 2819.05C1510.94 2818.83 1375.22 2762.31 1375.22 2762.31L1426.95 2863L1447.42 2884.81L1525.96 2847.76Z" fill="white" stroke="#36B37E" stroke-width="1.35786" stroke-miterlimit="10"/>
<mask id="mask1_1_468" style="mask-type:alpha" maskUnits="userSpaceOnUse" x="1374" y="2761" width="154" height="126">
<path d="M1526.38 2848.36V2843.02C1526.38 2843.02 1514.7 2819.88 1513.03 2819.66C1511.36 2819.43 1375.64 2762.91 1375.64 2762.91L1427.37 2863.61L1447.84 2885.41L1526.38 2848.36Z" fill="white" stroke="#36B37E" stroke-width="1.35786" stroke-miterlimit="10"/>
</mask>
<g mask="url(#mask1_1_468)">
<path d="M1469.34 2821.61L1452.32 2822.17L1444.53 2808.37L1428.18 2809.15L1435.85 2822.61L1419.61 2823.17L1427.18 2836.85L1443.53 2836.52L1460.44 2836.08L1468.67 2850.32L1486.14 2850.21L1494.81 2864.89H1513.17L1504.16 2849.98L1495.37 2835.3L1477.68 2835.74L1469.34 2821.61Z" fill="#C5E9DA"/>
<path d="M1461.22 2807.7L1453.21 2794.13L1436.74 2795.02L1444.53 2808.37L1461.22 2807.7Z" fill="#36B37E"/>
<path d="M1486.8 2820.94L1478.35 2806.92L1461.22 2807.7L1469.34 2821.61L1486.8 2820.94Z" fill="#36B37E"/>
<path d="M1495.93 2806.15L1487.36 2792.24L1470.12 2793.13L1478.35 2806.92L1495.93 2806.15Z" fill="#36B37E"/>
<path d="M1504.71 2820.39L1486.8 2820.94L1495.37 2835.3L1513.61 2834.96L1532.3 2834.52L1523.07 2819.83L1514.06 2805.37L1495.93 2806.15L1504.71 2820.39Z" fill="#36B37E"/>
<path d="M1412.27 2809.82L1428.18 2809.15L1420.72 2795.8L1436.74 2795.02L1429.18 2781.78L1413.38 2782.78L1397.92 2783.78L1405.04 2796.69L1389.69 2797.47L1374.78 2798.25L1381.56 2811.15L1396.69 2810.49L1403.81 2823.73L1419.61 2823.17L1412.27 2809.82Z" fill="#172B4D"/>
<path d="M1388.46 2824.17L1395.47 2837.52L1411.16 2837.19L1403.81 2823.72L1388.46 2824.17Z" fill="#36B37E"/>
<path d="M1376.11 2772.21L1382.79 2784.78L1397.92 2783.78L1390.91 2771.1L1376.11 2772.21Z" fill="#36B37E"/>
<path d="M1453.21 2794.13L1470.12 2793.13L1462 2779.67L1454.1 2766.42L1437.74 2767.65L1421.72 2768.87L1429.18 2781.78L1445.42 2780.78L1453.21 2794.13Z" fill="#36B37E"/>
<path d="M1496.48 2777.44L1479.02 2778.55L1487.36 2792.24L1505.16 2791.35L1496.48 2777.44Z" fill="#36B37E"/>
<path d="M1532.53 2804.59L1523.4 2790.35L1505.16 2791.35L1514.06 2805.37L1532.53 2804.59Z" fill="#36B37E"/>
<path d="M1411.16 2837.19L1418.61 2850.98L1434.85 2850.76L1427.18 2836.85L1411.16 2837.19Z" fill="#36B37E"/>
</g>
<path d="M1495.7 2844.2L1433.41 2857.55L1431.85 2861.67L1445.75 2880.69L1495.7 2844.2Z" fill="#172B4D"/>
<path d="M1531.3 2848.43L1592.49 2699.22L1553.11 2859.77L1548.88 2861.22L1531.3 2848.43Z" fill="white" stroke="#36B37E" stroke-width="1.35786" stroke-miterlimit="10"/>
<path d="M1553.44 2858.33L1535.2 2838.86L1531.3 2848.43L1548.88 2861.22L1553.11 2859.77L1553.44 2858.33Z" fill="#36B37E"/>
<path d="M1548.88 2861.22L1536.31 2850.54L1516.84 2835.74L1467.56 2855.55L1465.33 2867.45L1477.35 2884.48L1548.88 2861.22Z" fill="white" stroke="#36B37E" stroke-width="1.35786" stroke-miterlimit="10"/>
<path d="M1523.63 2869.34L1560 2857.55L1539.09 2910.06L1509.05 2911.96L1523.63 2869.34Z" fill="white" stroke="#36B37E" stroke-width="1.35786" stroke-miterlimit="10"/>
<path d="M1484.58 2881.92L1477.35 2884.47L1474.01 2931.98L1477.35 2942L1509.05 2911.96L1523.63 2869.34L1484.58 2881.92Z" fill="white" stroke="#36B37E" stroke-width="1.35786" stroke-miterlimit="10"/>
<path d="M1581.92 2850.54L1644.77 2884.48L1484.58 2881.92L1581.92 2850.54Z" fill="#C5E9DA" stroke="#36B37E" stroke-width="1.35786" stroke-miterlimit="10"/>
<path d="M1477.35 2884.48V2876.69L1426.95 2807.37L1420.28 2817.94L1468.45 2936.43L1474.01 2931.98L1477.35 2884.48Z" fill="white" stroke="#36B37E" stroke-width="1.35786" stroke-miterlimit="10"/>
<path d="M1426.95 2807.37L1420.28 2817.94L1397.81 2838.86L1415.61 2802.92L1426.95 2807.37Z" fill="white" stroke="#36B37E" stroke-width="1.35786" stroke-miterlimit="10"/>
<path d="M1547.1 2889.82L1484.58 2881.92L1549.88 2883.03L1547.1 2889.82Z" fill="#172B4D"/>
<path d="M1491.37 2879.8L1469.56 2861.67L1468.67 2864.78L1477.35 2876.69V2884.47L1491.37 2879.8Z" fill="#172B4D"/>
<path d="M1463.78 2925.09L1458.66 2931.43L1451.98 2925.09L1417.16 2820.94L1420.28 2817.94L1463.78 2925.09Z" fill="#C5E9DA" stroke="#36B37E" stroke-width="1.35786" stroke-miterlimit="10"/>
</g>
<g clip-path="url(#clip49_1_468)">
<path d="M1475.28 4073.71L1656.94 4044.48L1757.49 4028.3L1701.27 3969.51L1436.94 4012.04L1445.27 4039.58L1475.28 4073.71Z" fill="#172B4D"/>
<path d="M1638.62 3592.95L1692.68 3625.51L1542.47 4049.61L1475.28 4073.71L1445.27 4039.58L1436.94 4012.04L1535.52 3769.97L1559.46 3747.79L1549.81 3724.82L1594.16 3611.57L1638.62 3592.95Z" fill="white"/>
<mask id="mask2_1_468" style="mask-type:alpha" maskUnits="userSpaceOnUse" x="1436" y="3592" width="257" height="482">
<path d="M1638.62 3592.95L1692.68 3625.51L1542.47 4049.61L1475.28 4073.71L1445.27 4039.58L1436.94 4012.04L1535.52 3769.97L1559.46 3747.79L1549.81 3724.82L1594.16 3611.57L1638.62 3592.95Z" fill="white"/>
</mask>
<g mask="url(#mask2_1_468)">
<path d="M1527.77 3812.93L1535.26 3791.1L1556.3 3787.94L1563.45 3766.85L1542.63 3769.97L1549.85 3749.33L1529 3752.23L1521.37 3773.17L1513.58 3794.59L1491.65 3797.89L1483.3 3820.09L1460.55 3823.98L1451.67 3847.18L1474.84 3842.99L1497.59 3839.1L1505.65 3816.49L1527.77 3812.93Z" fill="#C5E9DA"/>
<path d="M1549.18 3809.26L1570.18 3805.88L1577.08 3784.6L1556.3 3787.94L1549.18 3809.26Z" fill="#36B37E"/>
<path d="M1519.87 3835.06L1541.73 3831.31L1549.18 3809.26L1527.77 3812.93L1519.87 3835.06Z" fill="#36B37E"/>
<path d="M1534.12 3853.85L1555.95 3849.88L1563.14 3827.64L1541.73 3831.31L1534.12 3853.85Z" fill="#172B4D"/>
<path d="M1511.88 3858.12L1519.87 3835.06L1497.59 3839.1L1489.17 3862.23L1480.62 3886.06L1503.72 3881.43L1526.4 3877.09L1534.12 3853.85L1511.88 3858.12Z" fill="#172B4D"/>
<path d="M1570.26 3746.51L1563.45 3766.85L1583.82 3763.81L1577.08 3784.6L1597.45 3781.55L1604 3761.02L1610.18 3741L1590.44 3743.72L1596.88 3723.89L1603.2 3704.77L1583.62 3707L1577.11 3726.38L1556.93 3729.17L1549.85 3749.33L1570.26 3746.51Z" fill="#36B37E"/>
<path d="M1563.59 3709.31L1543.37 3711.87L1536.26 3731.81L1556.93 3729.17L1563.59 3709.31Z" fill="#172B4D"/>
<path d="M1570.18 3805.88L1563.14 3827.64L1584.11 3824.03L1604.59 3820.28L1611.04 3799.07L1617.33 3778.35L1597.45 3781.55L1590.96 3802.53L1570.18 3805.88Z" fill="#36B37E"/>
<path d="M1570.2 3868.67L1577.33 3845.98L1555.95 3849.88L1548.41 3872.86L1570.2 3868.67Z" fill="#36B37E"/>
<path d="M1518.3 3900.86L1540.73 3896.33L1548.41 3872.86L1526.4 3877.09L1518.3 3900.86Z" fill="#36B37E"/>
<path d="M1536.26 3731.81L1515.37 3734.48L1507.67 3754.97L1529 3752.23L1536.26 3731.81Z" fill="#36B37E"/>
</g>
<path d="M1638.62 3592.95L1475.28 4073.71L1542.47 4049.61L1692.68 3625.51L1638.62 3592.95Z" fill="#C5E9DA"/>
<path d="M1638.62 3592.95L1692.68 3625.51L1542.47 4049.61L1475.28 4073.71L1445.27 4039.58L1436.94 4012.04L1535.52 3769.97L1559.46 3747.79L1549.81 3724.82L1594.16 3611.57L1638.62 3592.95Z" stroke="#36B37E" stroke-width="1.57158" stroke-miterlimit="10" stroke-linejoin="round"/>
<path d="M1580.39 3763.9L1601.32 3780.01L1573.39 3784.51L1580.39 3763.9Z" fill="white"/>
<path d="M1638.16 3779.58L1601.32 3780.01L1580.39 3763.9L1559.46 3747.79" stroke="#36B37E" stroke-width="1.57158" stroke-miterlimit="10" stroke-linejoin="round"/>
<path d="M1601.32 3780.01L1573.39 3784.5L1545.28 3867.64" stroke="#36B37E" stroke-width="1.57158" stroke-miterlimit="10" stroke-linejoin="round"/>
<path d="M1673.59 3679.23L1627.12 3626.89L1583.44 3638.96" stroke="#36B37E" stroke-width="1.57158" stroke-miterlimit="10" stroke-linejoin="round"/>
<path d="M1596.37 3635.28L1587.18 3629.42" stroke="#36B37E" stroke-width="1.57158" stroke-miterlimit="10" stroke-linejoin="round"/>
<path d="M1538.28 3888.25L1502.02 3852.37L1436.94 4012.04L1445.27 4039.58L1475.28 4073.71L1538.28 3888.25Z" fill="white" stroke="#36B37E" stroke-width="1.57158" stroke-miterlimit="10" stroke-linejoin="round"/>
<path d="M1593.34 3908.49L1534.08 3900.61L1529.33 3879.6L1540.46 3884.69L1593.34 3908.49Z" fill="#172B4D"/>
</g>
<g clip-path="url(#clip50_1_468)">
<path d="M276.599 3970.79L178.961 3975.08C178.6 3975.08 178.058 3975.26 177.696 3975.62L145.136 4008.15C144.774 4008.51 144.593 4009.05 144.591 4009.77L145.96 4040.81C145.958 4041.89 146.858 4042.79 148.122 4042.61L231.876 4033.47C232.417 4033.29 232.959 4033.11 233.321 4032.75L251.432 4005.29L251.613 4005.11L278.395 3974.04C279.301 3972.77 278.223 3970.61 276.599 3970.79Z" fill="#172B4D"/>
<path d="M237.171 3799.28L127.229 3807.94L98.7385 3851.88L126.148 3967.44L158.594 3992.64L222.349 3987.63L233.942 3954.45L266.733 3918.45L237.171 3799.28Z" fill="white" stroke="#36B37E" stroke-width="1.55764" stroke-miterlimit="10" stroke-linejoin="round"/>
<path d="M233.942 3954.45L175.867 3851.16L237.171 3799.28L266.733 3918.45L233.942 3954.45Z" fill="#C5E9DA" stroke="#36B37E" stroke-width="1.55764" stroke-miterlimit="10" stroke-linejoin="round"/>
<path d="M222.349 3987.63L207.595 3907.32L233.942 3954.45L222.349 3987.63Z" fill="white" stroke="#36B37E" stroke-width="1.55764" stroke-miterlimit="10" stroke-linejoin="round"/>
<path d="M98.7384 3851.88L175.867 3851.16" stroke="#36B37E" stroke-width="1.55764" stroke-miterlimit="10" stroke-linejoin="round"/>
<path d="M190.238 3838.97L169.046 3840.69L162.831 3851.22L185.905 3868.86L190.238 3838.97Z" fill="#C5E9DA" stroke="#36B37E" stroke-width="1.55764" stroke-miterlimit="10" stroke-linejoin="round"/>
<mask id="mask3_1_468" style="mask-type:alpha" maskUnits="userSpaceOnUse" x="88" y="3785" width="147" height="80">
<path d="M144.707 3828.64L159.133 3832.95L168.721 3823.02L182.426 3827.33L172.838 3836.91L186.363 3841.04L176.956 3850.79L163.25 3846.84L149.184 3842.89L139.054 3853.01L124.266 3849.06L113.775 3859.54L98.2648 3855.6L109.298 3844.93L119.79 3834.45L134.577 3838.76L144.707 3828.64Z" fill="#C5E9DA"/>
<path d="M154.836 3818.88L164.604 3809.13L178.308 3813.44L168.721 3823.02L154.836 3818.88Z" fill="#36B37E"/>
<path d="M195.589 3831.46L182.426 3827.33L191.652 3817.75L178.308 3813.44L187.714 3804.04L200.697 3808.35L213.319 3812.67L204.634 3822.06L217.257 3826.02L229.699 3830.15L221.195 3839.36L208.572 3835.41L199.346 3844.99L186.363 3841.04L195.589 3831.46Z" fill="#5E78A5"/>
<path d="M212.33 3848.94L203.465 3858.52L190.3 3854.75L199.346 3844.99L212.33 3848.94Z" fill="#36B37E"/>
<path d="M234.444 3807.77L225.941 3816.98L213.319 3812.67L222.184 3803.45L234.444 3807.77Z" fill="#36B37E"/>
<path d="M164.604 3809.13L150.72 3804.63L160.307 3795.06L170.074 3785.66L183.598 3790.15L196.759 3795.01L187.715 3804.04L174.191 3799.55L164.604 3809.13Z" fill="#36B37E"/>
<path d="M190.3 3854.75L181.073 3864.68L167.187 3860.91L176.956 3850.79L190.3 3854.75Z" fill="#36B37E"/>
</mask>
<g mask="url(#mask3_1_468)">
<path d="M126.71 3808.46L236.267 3800.18L186.531 3840.95L168.101 3842.4L161.698 3852.33L98.4537 3852.17L126.71 3808.46Z" fill="#36B37E" stroke="#36B37E" stroke-width="1.55764" stroke-miterlimit="10" stroke-linejoin="round"/>
</g>
</g>
<path d="M462.531 3985.42L466.542 3977.08C466.644 3976.87 466.817 3976.7 467.03 3976.6L527.722 3949.07C528.017 3948.93 528.358 3948.95 528.638 3949.11L558.959 3966.8C559.73 3967.24 559.571 3968.4 558.708 3968.63L481.934 3988.63C481.819 3988.66 481.701 3988.67 481.583 3988.66L463.333 3986.85C462.642 3986.78 462.23 3986.05 462.531 3985.42Z" fill="#172B4D"/>
<g clip-path="url(#clip51_1_468)">
<path d="M466.165 3920.84L449.146 3966.93L468.986 3980.13L526.573 3952.78L544.237 3929L501.731 3915.71L466.165 3920.84Z" fill="white" stroke="#36B37E" stroke-width="1.63467" stroke-miterlimit="10" stroke-linejoin="round"/>
<path d="M486.19 3939.38L488.083 3943.37L526.573 3952.78L529.205 3949.17L544.237 3929L501.731 3915.71L486.19 3939.38Z" fill="#C5E9DA" stroke="#36B37E" stroke-width="1.63467" stroke-miterlimit="10" stroke-linejoin="round"/>
<path d="M501.731 3915.71L488.342 3937.82L449.146 3966.93" fill="white"/>
<path d="M501.731 3915.71L488.342 3937.82L449.146 3966.93" stroke="#36B37E" stroke-width="1.63467" stroke-miterlimit="10" stroke-linejoin="round"/>
<path d="M481.217 3943.01L483.041 3932.37L493.185 3929.73L488.083 3943.37L481.217 3943.01Z" fill="#172B4D" stroke="#36B37E" stroke-width="1.63467" stroke-miterlimit="10" stroke-linejoin="round"/>
<path d="M526.573 3952.78L488.083 3943.37" stroke="#36B37E" stroke-width="1.63467" stroke-miterlimit="10" stroke-linejoin="round"/>
<path d="M513.258 3949.51L519.947 3944.16L519.224 3951.02L514.104 3954.72L513.258 3949.51Z" fill="white" stroke="#36B37E" stroke-width="1.63467" stroke-miterlimit="10" stroke-linejoin="round"/>
<path d="M519.947 3944.16L518.298 3920.87" stroke="#36B37E" stroke-width="1.63467" stroke-miterlimit="10" stroke-linejoin="round"/>
<mask id="mask4_1_468" style="mask-type:alpha" maskUnits="userSpaceOnUse" x="448" y="3942" width="80" height="39">
<path d="M449.146 3966.93L481.217 3943.01L492.524 3944.34L526.573 3952.78L522.439 3954.74L468.986 3980.13L449.146 3966.93Z" fill="white" stroke="#36B37E" stroke-width="1.63467" stroke-miterlimit="10" stroke-linejoin="round"/>
</mask>
<g mask="url(#mask4_1_468)">
<path d="M482.141 3954.54L486.534 3945.21L496.322 3944.86L500.434 3935.89L491.103 3936.25L495.4 3927.2L485.797 3927.46L481.5 3936.52L476.835 3945.74L466.775 3946L462.012 3955.5L451.583 3955.93L446.355 3965.88L456.968 3965.36L467.31 3964.75L472.169 3954.97L482.141 3954.54Z" fill="#36B37E"/>
<path d="M491.928 3954.18L501.628 3953.65L505.652 3944.5L496.322 3944.86L491.928 3954.18Z" fill="#36B37E"/>
<path d="M477.466 3964.22L487.535 3963.51L491.928 3954.18L482.141 3954.53L477.466 3964.22Z" fill="#C5E9DA"/>
<path d="M482.86 3973.2L492.744 3972.57L497.235 3962.98L487.535 3963.51L482.86 3973.2Z" fill="#36B37E"/>
<path d="M472.791 3973.91L477.466 3964.22L467.309 3964.75L462.45 3974.52L457.397 3984.84L467.835 3983.95L478.176 3983.34L482.86 3973.2L472.791 3973.91Z" fill="#36B37E"/>
<path d="M504.633 3927.11L500.434 3935.89L509.764 3935.53L505.652 3944.5L514.983 3944.14L518.91 3935.26L522.741 3926.66L513.779 3926.84L517.697 3918.42L521.431 3910.08L512.654 3910.18L508.736 3918.6L499.502 3918.69L495.4 3927.2L504.633 3927.11Z" fill="#36B37E"/>
<path d="M501.628 3953.65L497.235 3962.98L506.75 3962.53L516.178 3961.9L520.202 3952.75L524.129 3943.87L514.983 3944.14L510.959 3953.29L501.628 3953.65Z" fill="#36B37E"/>
<path d="M498.226 3981.73L502.629 3971.95L492.744 3972.57L488.342 3982.36L498.226 3981.73Z" fill="#36B37E"/>
<path d="M473.492 3993.48L483.658 3992.5L488.342 3982.36L478.176 3983.34L473.492 3993.48Z" fill="#36B37E"/>
</g>
</g>
<path d="M154.047 3020.82L382.485 3017.92L293.963 2994.03L303.941 2973.31L360.558 2965.69L346.055 2962.39L307.073 2960.68L154.047 3020.82Z" fill="#172B4D"/>
<path d="M280.389 2915.05L273.428 2915.17L215.535 2894L280.969 2930.41L291.643 2921.77L280.389 2915.05Z" fill="#36B37E"/>
<path d="M280.389 2915.05L393.042 2894.8L336.774 2948.39L280.389 2915.05Z" fill="#172B4D"/>
<path d="M215.535 2894L327.956 2956.7L302.664 2961.25L240.711 2965.69L215.535 2894Z" fill="white" stroke="#36B37E" stroke-width="1.43685" stroke-miterlimit="10" stroke-linejoin="round"/>
<path d="M327.956 2956.7L393.042 2894.8L346.055 2962.39L327.956 2956.7Z" fill="white" stroke="#36B37E" stroke-width="1.43685" stroke-miterlimit="10" stroke-linejoin="round"/>
<path d="M280.969 2930.41L310.09 2906.86L313.106 2909.25L303.941 2943.27L280.969 2930.41Z" fill="white" stroke="#36B37E" stroke-width="1.43685" stroke-miterlimit="10" stroke-linejoin="round"/>
<path d="M313.106 2909.25L339.442 2945.89L327.956 2956.7L303.94 2943.27L313.106 2909.25Z" fill="white" stroke="#36B37E" stroke-width="1.43685" stroke-miterlimit="10" stroke-linejoin="round"/>
<path d="M346.055 2962.39L302.665 2961.25L327.956 2956.7L346.055 2962.39Z" fill="white" stroke="#36B37E" stroke-width="1.43685" stroke-miterlimit="10" stroke-linejoin="round"/>
<path d="M196.16 2944.87L186.879 2946.46L105.203 2930.3L200.337 2965.12L212.751 2951.35L196.16 2944.87Z" fill="white" stroke="#36B37E" stroke-width="1.43685" stroke-miterlimit="10" stroke-linejoin="round"/>
<path d="M196.161 2944.87L341.879 2894.8L278.417 2977.3L196.161 2944.87Z" fill="#C5E9DA" stroke="#36B37E" stroke-width="1.43685" stroke-miterlimit="10"/>
<path d="M105.203 2930.3L268.672 2990.04L235.839 3001.42L154.162 3019.97L105.203 2930.3Z" fill="white" stroke="#36B37E" stroke-width="1.43685" stroke-miterlimit="10" stroke-linejoin="round"/>
<path d="M268.671 2990.04L341.878 2894.8L293.963 2994.03L268.671 2990.04Z" fill="white" stroke="#36B37E" stroke-width="1.43685" stroke-miterlimit="10" stroke-linejoin="round"/>
<path d="M200.337 2965.12L234.098 2927.91L238.623 2930.3L233.75 2977.3L200.337 2965.12Z" fill="#36B37E"/>
<path d="M238.623 2930.3L281.433 2973.43L268.671 2990.04L233.75 2977.3L238.623 2930.3Z" fill="white" stroke="#36B37E" stroke-width="1.43685" stroke-miterlimit="10" stroke-linejoin="round"/>
<path d="M293.963 2994.03L235.838 3001.42L268.671 2990.04L293.963 2994.03Z" fill="white" stroke="#36B37E" stroke-width="1.43685" stroke-miterlimit="10" stroke-linejoin="round"/>
<mask id="mask5_1_468" style="mask-type:alpha" maskUnits="userSpaceOnUse" x="104" y="2930" width="166" height="91">
<path d="M105 2930.72L268.364 2989.8L236.013 3000.74L154.337 3019.29L105 2930.72Z" fill="white" stroke="#36B37E" stroke-width="1.43685" stroke-miterlimit="10" stroke-linejoin="round"/>
</mask>
<g mask="url(#mask5_1_468)">
<path d="M203.354 2992.43L185.603 2993L177.366 2979L160.311 2979.69L168.316 2993.57L151.494 2994.02L159.267 3008.02L176.437 3007.68L193.956 3007.22L202.541 3021.9L220.872 3021.68L229.922 3036.7H248.948L239.667 3021.45L230.502 3006.54L211.939 3006.88L203.354 2992.43Z" fill="#C5E9DA"/>
<path d="M194.769 2978.21L186.415 2964.32L169.245 2965.23L177.366 2979L194.769 2978.21Z" fill="#C5E9DA"/>
<path d="M221.453 2991.86L212.751 2977.41L194.769 2978.21L203.354 2992.43L221.453 2991.86Z" fill="#36B37E"/>
<path d="M231.082 2976.73L222.149 2962.39L204.05 2963.41L212.751 2977.41L231.082 2976.73Z" fill="#172B4D"/>
<path d="M240.131 2991.18L221.453 2991.86L230.502 3006.54L249.413 3006.09L268.904 3005.63L259.274 2990.61L249.877 2975.93L231.082 2976.73L240.131 2991.18Z" fill="#36B37E"/>
<path d="M143.721 2980.37L160.311 2979.69L152.538 2966.15L169.244 2965.23L161.355 2951.69L144.881 2952.72L128.754 2953.74L136.179 2966.94L120.285 2967.85L104.623 2968.65L111.7 2981.73L127.594 2981.05L135.019 2994.59L151.494 2994.02L143.721 2980.37Z" fill="#36B37E"/>
<path d="M186.415 2964.32L204.05 2963.41L195.58 2949.65L187.343 2936.1L170.289 2937.36L153.582 2938.49L161.355 2951.69L178.294 2950.67L186.415 2964.32Z" fill="#36B37E"/>
<path d="M231.662 2947.37L213.447 2948.51L222.149 2962.39L240.711 2961.48L231.662 2947.37Z" fill="#36B37E"/>
<path d="M269.252 2975.02L259.622 2960.46L240.711 2961.48L249.877 2975.93L269.252 2975.02Z" fill="#36B37E"/>
<path d="M142.561 3008.36L150.334 3022.47L167.272 3022.25L159.267 3008.02L142.561 3008.36Z" fill="#36B37E"/>
</g>
<g clip-path="url(#clip52_1_468)">
<text fill="#344563" xml:space="preserve" style="white-space: pre" font-family="Inter" font-size="15" font-weight="600" letter-spacing="0em"><tspan x="761.306" y="433.455">Portoflio</tspan></text>
<text fill="#344563" xml:space="preserve" style="white-space: pre" font-family="Inter" font-size="15" font-weight="600" letter-spacing="0em"><tspan x="856.374" y="433.455">About</tspan></text>
<text fill="#344563" xml:space="preserve" style="white-space: pre" font-family="Inter" font-size="15" font-weight="600" letter-spacing="0em"><tspan x="933.459" y="433.455">Contact</tspan></text>
</g>
</g>
<defs>
<filter id="filter0_d_1_468" x="422" y="3144.5" width="128" height="128" filterUnits="userSpaceOnUse" color-interpolation-filters="sRGB">
<feFlood flood-opacity="0" result="BackgroundImageFix"/>
<feColorMatrix in="SourceAlpha" type="matrix" values="0 0 0 0 0 0 0 0 0 0 0 0 0 0 0 0 0 0 127 0" result="hardAlpha"/>
<feOffset dy="16"/>
<feGaussianBlur stdDeviation="12"/>
<feColorMatrix type="matrix" values="0 0 0 0 0.145573 0 0 0 0 0.185183 0 0 0 0 0.5375 0 0 0 0.08 0"/>
<feBlend mode="normal" in2="BackgroundImageFix" result="effect1_dropShadow_1_468"/>
<feBlend mode="normal" in="SourceGraphic" in2="effect1_dropShadow_1_468" result="shape"/>
</filter>
<filter id="filter1_d_1_468" x="815" y="3144.5" width="128" height="128" filterUnits="userSpaceOnUse" color-interpolation-filters="sRGB">
<feFlood flood-opacity="0" result="BackgroundImageFix"/>
<feColorMatrix in="SourceAlpha" type="matrix" values="0 0 0 0 0 0 0 0 0 0 0 0 0 0 0 0 0 0 127 0" result="hardAlpha"/>
<feOffset dy="16"/>
<feGaussianBlur stdDeviation="12"/>
<feColorMatrix type="matrix" values="0 0 0 0 0.145573 0 0 0 0 0.185183 0 0 0 0 0.5375 0 0 0 0.08 0"/>
<feBlend mode="normal" in2="BackgroundImageFix" result="effect1_dropShadow_1_468"/>
<feBlend mode="normal" in="SourceGraphic" in2="effect1_dropShadow_1_468" result="shape"/>
</filter>
<filter id="filter2_d_1_468" x="1208" y="3144.5" width="128" height="128" filterUnits="userSpaceOnUse" color-interpolation-filters="sRGB">
<feFlood flood-opacity="0" result="BackgroundImageFix"/>
<feColorMatrix in="SourceAlpha" type="matrix" values="0 0 0 0 0 0 0 0 0 0 0 0 0 0 0 0 0 0 127 0" result="hardAlpha"/>
<feOffset dy="16"/>
<feGaussianBlur stdDeviation="12"/>
<feColorMatrix type="matrix" values="0 0 0 0 0.145573 0 0 0 0 0.185183 0 0 0 0 0.5375 0 0 0 0.08 0"/>
<feBlend mode="normal" in2="BackgroundImageFix" result="effect1_dropShadow_1_468"/>
<feBlend mode="normal" in="SourceGraphic" in2="effect1_dropShadow_1_468" result="shape"/>
</filter>
<clipPath id="clip0_1_468">
<rect width="1440" height="3774" fill="white" transform="translate(158 392)"/>
</clipPath>
<clipPath id="clip1_1_468">
<rect width="302.379" height="345.234" fill="white" transform="translate(1275.2 608.345) rotate(-15.2643)"/>
</clipPath>
<clipPath id="clip2_1_468">
<rect width="136.667" height="156.036" fill="white" transform="translate(599.162 1207.06) rotate(152.88)"/>
</clipPath>
<clipPath id="clip3_1_468">
<rect width="52.7646" height="60.2428" fill="white" transform="translate(715.495 484.014) rotate(82.5164)"/>
</clipPath>
<clipPath id="clip4_1_468">
<rect width="217" height="220.885" fill="white" transform="translate(268.136 609.736) rotate(22.1095)"/>
</clipPath>
<clipPath id="clip5_1_468">
<rect width="220.218" height="147.722" fill="white" transform="translate(1214.92 540.65) rotate(-145.241)"/>
</clipPath>
<clipPath id="clip6_1_468">
<rect width="123.408" height="98.3577" fill="white" transform="translate(771.087 989.736) rotate(61.0741)"/>
</clipPath>
<clipPath id="clip7_1_468">
<rect width="232.215" height="185.079" fill="white" transform="translate(1050 1130.84) rotate(-30)"/>
</clipPath>
<clipPath id="clip8_1_468">
<rect width="200" height="40" fill="white" transform="translate(778 882)"/>
</clipPath>
<clipPath id="clip9_1_468">
<rect width="18" height="20" fill="white" transform="translate(789 892)"/>
</clipPath>
<clipPath id="clip10_1_468">
<rect width="18" height="20" fill="white" transform="translate(789 892)"/>
</clipPath>
<clipPath id="clip11_1_468">
<rect width="20" height="20" fill="white" transform="translate(828 892)"/>
</clipPath>
<clipPath id="clip12_1_468">
<rect width="20" height="20" fill="white" transform="translate(868 892)"/>
</clipPath>
<clipPath id="clip13_1_468">
<rect width="20" height="20" fill="white" transform="translate(908 892)"/>
</clipPath>
<clipPath id="clip14_1_468">
<rect width="20" height="19.9667" fill="white" transform="translate(908 891.972)"/>
</clipPath>
<clipPath id="clip15_1_468">
<rect width="24" height="24" fill="white" transform="translate(866 1004)"/>
</clipPath>
<clipPath id="clip16_1_468">
<rect width="447" height="48" fill="white" transform="translate(655 1531)"/>
</clipPath>
<clipPath id="clip17_1_468">
<rect width="1171" height="988" fill="white" transform="translate(293 1627)"/>
</clipPath>
<clipPath id="clip18_1_468">
<rect width="1155" height="482" fill="white" transform="translate(301 1627)"/>
</clipPath>
<clipPath id="clip19_1_468">
<rect width="329" height="32" fill="white" transform="translate(321 1972)"/>
</clipPath>
<clipPath id="clip20_1_468">
<rect width="329" height="32" fill="white" transform="translate(714 1972)"/>
</clipPath>
<clipPath id="clip21_1_468">
<rect width="329" height="32" fill="white" transform="translate(1107 1972)"/>
</clipPath>
<clipPath id="clip22_1_468">
<rect width="329" height="32" fill="white" transform="translate(321 2478)"/>
</clipPath>
<clipPath id="clip23_1_468">
<rect width="329" height="32" fill="white" transform="translate(714 2478)"/>
</clipPath>
<clipPath id="clip24_1_468">
<rect width="329" height="32" fill="white" transform="translate(1107 2478)"/>
</clipPath>
<clipPath id="clip25_1_468">
<rect width="920" height="240" fill="white" transform="translate(419 2803)"/>
</clipPath>
<clipPath id="clip26_1_468">
<rect width="44" height="44" fill="white" transform="translate(464 3170.5)"/>
</clipPath>
<clipPath id="clip27_1_468">
<rect width="337" height="96" fill="white" transform="translate(317 3260.5)"/>
</clipPath>
<clipPath id="clip28_1_468">
<rect width="278" height="40" fill="white" transform="translate(346.5 3316.5)"/>
</clipPath>
<clipPath id="clip29_1_468">
<rect width="337" height="144" fill="white" transform="translate(710 3260.5)"/>
</clipPath>
<clipPath id="clip30_1_468">
<rect width="258" height="88" fill="white" transform="translate(749.5 3316.5)"/>
</clipPath>
<clipPath id="clip31_1_468">
<rect width="258" height="40" fill="white" transform="translate(749.5 3316.5)"/>
</clipPath>
<clipPath id="clip32_1_468">
<rect width="83" height="40" fill="white" transform="translate(837 3364.5)"/>
</clipPath>
<clipPath id="clip33_1_468">
<rect width="337" height="144" fill="white" transform="translate(1103 3260.5)"/>
</clipPath>
<clipPath id="clip34_1_468">
<rect width="293" height="88" fill="white" transform="translate(1125 3316.5)"/>
</clipPath>
<clipPath id="clip35_1_468">
<rect width="293" height="40" fill="white" transform="translate(1125 3316.5)"/>
</clipPath>
<clipPath id="clip36_1_468">
<rect width="287" height="40" fill="white" transform="translate(1128 3364.5)"/>
</clipPath>
<clipPath id="clip37_1_468">
<rect width="48" height="48" fill="white" transform="translate(1248 3168.5)"/>
</clipPath>
<clipPath id="clip38_1_468">
<rect width="463" height="256" fill="white" transform="translate(293 3526)"/>
</clipPath>
<clipPath id="clip39_1_468">
<rect width="684" height="330" fill="white" transform="translate(780 3526)"/>
</clipPath>
<clipPath id="clip40_1_468">
<rect width="684" height="48" fill="white" transform="translate(780 3526)"/>
</clipPath>
<clipPath id="clip41_1_468">
<rect width="200" height="40" fill="white" transform="translate(778 4110)"/>
</clipPath>
<clipPath id="clip42_1_468">
<rect width="18" height="20" fill="white" transform="translate(789 4120)"/>
</clipPath>
<clipPath id="clip43_1_468">
<rect width="18" height="20" fill="white" transform="translate(789 4120)"/>
</clipPath>
<clipPath id="clip44_1_468">
<rect width="20" height="20" fill="white" transform="translate(828 4120)"/>
</clipPath>
<clipPath id="clip45_1_468">
<rect width="20" height="20" fill="white" transform="translate(868 4120)"/>
</clipPath>
<clipPath id="clip46_1_468">
<rect width="20" height="20" fill="white" transform="translate(908 4120)"/>
</clipPath>
<clipPath id="clip47_1_468">
<rect width="20" height="19.9667" fill="white" transform="translate(908 4119.97)"/>
</clipPath>
<clipPath id="clip48_1_468">
<rect width="273" height="245" fill="white" transform="matrix(-1 0 0 1 1647 2699)"/>
</clipPath>
<clipPath id="clip49_1_468">
<rect width="316.165" height="450.963" fill="white" transform="matrix(-0.987301 0.15886 0.15886 0.987301 1687.15 3584)"/>
</clipPath>
<clipPath id="clip50_1_468">
<rect width="236" height="261.092" fill="white" transform="matrix(-0.707463 0.706751 0.706751 0.707463 166.961 3729)"/>
</clipPath>
<clipPath id="clip51_1_468">
<rect width="105.273" height="67.1849" fill="white" transform="translate(432 3936.17) rotate(-25.4057)"/>
</clipPath>
<clipPath id="clip52_1_468">
<rect x="749" y="408" width="255" height="40" fill="white"/>
</clipPath>
</defs>
</svg>
